<svg version="1.1" id="Layer_1" xmlns="http://www.w3.org/2000/svg" xmlns:xlink="http://www.w3.org/1999/xlink" x="0px" y="0px"
	 width="100%" viewBox="0 0 761 623" enable-background="new 0 0 761 623" xml:space="preserve">
<path fill="#FFFFFF" opacity="1.000000" stroke="none" 
	d="
M473.000000,624.000000 
	C315.333344,624.000000 158.166672,624.000000 1.000000,624.000000 
	C1.000000,416.333344 1.000000,208.666672 1.000000,1.000000 
	C254.666672,1.000000 508.333344,1.000000 762.000000,1.000000 
	C762.000000,208.666672 762.000000,416.333344 762.000000,624.000000 
	C665.833313,624.000000 569.666687,624.000000 473.000000,624.000000 
M415.225800,280.642914 
	C415.225800,280.642914 415.206177,280.356445 416.007172,280.189117 
	C420.283661,278.565399 425.614929,277.977722 428.526550,275.013367 
	C431.196198,272.295380 431.255005,267.012939 432.389862,263.115723 
	C433.726685,266.494812 435.340179,270.573242 436.965820,274.682373 
	C439.128571,274.325195 440.921387,274.083801 442.691071,273.727448 
	C450.436432,272.167786 451.074921,271.420990 451.203308,263.563507 
	C451.265778,259.740021 451.214081,255.914658 451.214081,250.704010 
	C453.061768,254.492325 454.248169,256.924774 455.800537,260.107666 
	C456.323273,258.137512 456.721100,257.054840 456.890198,255.937576 
	C459.085907,241.428238 463.903046,236.124466 478.050598,232.661499 
	C479.341461,232.345551 480.600159,231.897934 482.457153,232.036545 
	C495.104767,236.483154 505.720825,242.944321 507.522156,257.743134 
	C516.753113,257.524139 517.278931,256.978790 517.861206,248.720337 
	C518.420227,240.791824 519.140442,232.874680 519.889709,225.791397 
	C521.261780,233.971832 522.581482,242.161743 524.058289,250.323212 
	C524.299194,251.654434 524.919800,253.569046 525.901123,254.003967 
	C530.757629,256.156158 538.358276,251.069763 538.687927,245.695374 
	C538.797363,243.911163 538.876099,242.125061 538.968933,240.339828 
	C539.397278,240.320557 539.825623,240.301285 540.254028,240.282013 
	C541.230774,242.713348 542.013000,245.252136 543.270325,247.528488 
	C543.855835,248.588623 545.345825,249.789719 546.454651,249.818619 
	C555.033752,250.042175 558.109253,246.934433 558.194763,238.306595 
	C558.222839,235.478241 558.145691,232.649002 558.136230,229.820099 
	C558.124634,226.342209 558.133423,222.864258 558.133423,219.386322 
	C558.638428,219.369141 559.143372,219.351959 559.648376,219.334793 
	C561.252319,228.177887 562.856262,237.020981 564.574402,246.493698 
	C568.312317,245.306870 571.532043,243.757324 574.893005,243.337570 
	C580.303101,242.661896 580.480042,239.803986 579.691223,235.399475 
	C576.501526,217.589920 573.573669,199.733459 571.102783,181.416473 
	C576.374268,179.674988 578.114929,176.080963 576.689514,170.077774 
	C581.446350,160.607025 586.470398,151.257477 590.846191,141.613831 
	C593.000488,136.866135 594.683289,131.658905 595.282288,126.508759 
	C596.178467,118.804962 593.878418,111.704529 587.737915,106.084686 
	C587.452576,109.495422 587.712219,112.823929 588.795776,115.858208 
	C592.794373,127.055244 590.307251,136.553253 582.180359,144.821823 
	C579.938843,143.864273 577.978455,143.026840 575.901489,141.298920 
	C575.555542,136.207932 575.340942,131.103806 574.833252,126.029007 
	C574.052124,118.220131 571.530151,115.228195 564.746216,113.215683 
	C563.031677,112.657089 561.348511,111.961533 559.597778,111.561348 
	C544.061279,108.010056 528.532776,104.419624 512.959961,101.033318 
	C504.560791,99.206902 496.079926,97.756218 487.431763,95.433762 
	C482.951477,80.861794 478.571106,66.257820 473.920044,51.740574 
	C472.771820,48.156647 471.071686,44.644760 469.042511,41.472530 
	C466.035004,36.770966 461.305969,35.115898 456.055939,36.967796 
	C452.196960,38.329006 448.227539,39.971729 444.989960,42.399338 
	C429.066345,54.339237 413.382446,66.598557 397.579559,78.700203 
	C395.647125,80.180031 393.508240,81.390259 390.659943,82.256035 
	C380.313477,81.146248 369.967010,80.036461 359.336700,78.362915 
	C353.648651,71.908615 347.962128,65.452950 342.272156,59.000309 
	C332.615173,48.048889 323.296356,36.772575 313.192413,26.250233 
	C304.781708,17.491226 296.249481,19.031963 290.018524,29.443974 
	C289.677704,30.013462 289.360962,30.599535 289.067688,31.194963 
	C277.999634,53.666729 266.890564,76.118484 255.895584,98.625969 
	C252.058685,106.480316 252.562836,114.022713 257.573303,121.018677 
	C239.561508,129.554092 221.549713,138.089508 202.974945,146.776367 
	C201.410828,148.402405 199.846710,150.028442 197.804138,151.136810 
	C194.161011,152.642197 190.315811,153.797623 186.931747,155.751678 
	C183.565445,157.695480 181.549561,156.735519 179.267563,154.163971 
	C172.715607,146.780716 171.686768,138.251541 173.365494,128.943222 
	C173.909744,125.925522 173.774872,122.785339 173.950638,119.701187 
	C173.126648,119.599701 172.302673,119.498222 171.478683,119.396736 
	C170.333908,124.976425 168.561279,130.515305 168.195221,136.145615 
	C167.679260,144.081924 170.814865,151.212357 175.972092,157.162460 
	C183.020035,165.293945 190.421570,173.118958 197.863190,181.982269 
	C197.932083,184.757721 197.734406,187.572723 198.138748,190.298416 
	C198.622238,193.557739 199.620438,196.740738 199.970734,200.560226 
	C201.764709,203.323654 203.558670,206.087067 204.881027,209.558319 
	C203.435394,220.524612 201.989761,231.490921 200.485123,242.904861 
	C206.284256,243.526688 211.312057,244.065811 216.503860,244.622528 
	C217.478485,240.642975 218.363541,237.029190 219.527451,232.276794 
	C220.869461,236.710648 221.608261,240.109161 222.931168,243.262650 
	C224.356430,246.660095 227.399521,247.338120 230.860718,246.923248 
	C234.275803,246.513901 233.763596,243.910370 234.070328,241.678116 
	C234.720398,236.946747 235.420425,232.222214 236.249649,226.453445 
	C236.882919,228.091980 237.231903,228.673920 237.327362,229.294815 
	C237.882263,232.903732 238.533524,236.507645 238.862946,240.139481 
	C239.755081,249.975037 239.449203,248.240494 248.425537,250.075974 
	C256.580200,251.743439 258.265656,250.470551 259.683807,242.160980 
	C259.962402,240.528687 259.821198,238.815247 260.183990,237.209351 
	C260.591217,235.406876 261.350616,233.683990 261.956787,231.926468 
	C262.477753,231.989349 262.998718,232.052231 263.519684,232.115128 
	C263.743683,237.171219 263.883423,242.233307 264.241730,247.279861 
	C264.353119,248.848434 264.742310,251.514648 265.540741,251.735062 
	C270.586761,253.128021 275.858337,254.902985 280.889954,254.497574 
	C282.648560,254.355881 283.951996,248.403946 285.430115,245.090546 
	C285.698273,244.489471 285.805237,243.816467 286.491852,243.916885 
	C287.438629,247.255768 288.041321,250.744614 289.415558,253.897171 
	C291.317749,258.261078 295.113403,258.957275 302.425385,258.218140 
	C307.126129,257.742981 305.971252,254.212067 306.796356,251.713989 
	C307.496643,249.593704 307.758179,247.328522 308.501282,243.738937 
	C310.927612,261.180756 315.983398,264.926239 331.799652,262.207611 
	C332.797272,257.445496 333.807343,252.623871 334.922546,248.685654 
	C335.320160,251.821671 335.623047,254.973221 336.134644,258.090515 
	C337.270599,265.011871 339.982483,267.018158 347.071716,266.830566 
	C349.588501,266.763977 350.795837,265.952850 350.759857,263.387360 
	C350.711731,259.957550 350.747955,256.526520 350.747955,253.096039 
	C351.264191,252.708389 351.780426,252.320755 352.296661,251.933121 
	C352.751373,267.862823 360.895111,274.046448 375.927124,272.015808 
	C375.927124,266.098053 375.927124,260.083282 375.927124,254.068527 
	C377.488831,257.523132 378.266022,261.044250 378.979126,264.578278 
	C380.557739,272.401215 384.647827,276.595032 392.538300,277.809143 
	C397.295013,278.541046 402.133820,278.739532 407.048004,279.941589 
	C406.643005,281.644562 406.238007,283.347534 405.007751,285.053253 
	C390.837830,282.477722 376.690216,279.770264 362.490326,277.372131 
	C352.714722,275.721191 342.866730,274.498871 332.660553,272.442108 
	C316.778290,269.672791 300.896057,266.903442 284.289551,263.805786 
	C275.858521,262.125732 267.440857,260.374847 258.993561,258.781036 
	C243.534134,255.864227 228.049408,253.081131 212.592804,250.149719 
	C208.548279,249.382645 205.997406,249.861618 205.821609,254.894608 
	C205.701920,258.321533 204.558365,261.712677 203.318726,264.565613 
	C196.203247,259.199799 188.499588,254.448868 182.103790,248.330719 
	C171.257278,237.955109 166.797211,224.210983 164.045959,209.746582 
	C161.420105,195.941513 154.620483,185.186646 140.084625,181.493195 
	C131.909058,179.415863 124.013657,181.524796 116.195084,184.240173 
	C102.100533,189.135208 94.264130,183.724640 93.865562,168.748611 
	C93.702377,162.617020 94.696228,156.462311 94.718658,150.316483 
	C94.765305,137.536728 88.198235,131.338364 75.465714,131.931656 
	C71.483727,132.117188 67.416595,132.235153 63.565636,133.139023 
	C52.526936,135.729904 41.831150,137.096848 32.665703,127.288506 
	C32.150982,134.884521 35.293789,139.681473 41.299175,141.628876 
	C45.863796,143.109116 51.037952,143.688019 55.818218,143.268845 
	C61.371979,142.781845 66.734192,140.421387 72.283340,139.497726 
	C80.511620,138.128113 86.112183,142.027405 86.974579,150.321869 
	C87.707108,157.367264 87.012749,164.551102 87.160576,171.669281 
	C87.467880,186.465973 95.436485,193.271835 110.051704,191.171844 
	C117.126839,190.155258 124.128075,188.616653 131.207901,187.642242 
	C143.019897,186.016556 149.680283,189.529739 153.941833,200.583374 
	C157.215866,209.075607 159.239304,218.041336 162.082047,226.710190 
	C168.935913,247.610870 181.924820,262.804382 203.134689,271.086395 
	C203.067337,275.740784 202.849808,280.400879 203.027405,285.045898 
	C203.078323,286.377563 203.949493,288.386810 204.994659,288.853607 
	C210.708908,291.405579 216.594574,293.573730 222.572830,295.933624 
	C223.235855,291.845123 223.822083,288.230225 224.527512,283.880219 
	C227.078476,287.827698 228.738892,291.393677 231.335648,294.041382 
	C232.891220,295.627472 235.935867,296.383484 238.260544,296.287323 
	C239.246872,296.246521 240.517532,293.157104 240.936066,291.291107 
	C241.937851,286.824890 242.510834,282.262482 243.256912,277.738922 
	C243.659119,277.772827 244.061340,277.806763 244.463547,277.840668 
	C245.054413,284.697937 245.645279,291.555206 246.260452,298.694580 
	C251.505066,299.538239 256.462463,300.335724 261.507080,301.147247 
	C262.706451,295.796509 263.753265,291.126465 265.101868,285.109924 
	C266.334259,290.046875 266.975891,293.482452 268.064117,296.770233 
	C269.622406,301.478088 273.974091,304.247711 280.007660,303.375275 
	C281.730316,303.126190 282.967804,299.470703 284.408081,297.363800 
	C284.687469,296.955078 284.875244,296.483765 285.698425,296.396179 
	C289.752563,306.638580 295.213593,309.088837 305.629333,305.199646 
	C306.482056,298.768646 307.346313,292.250366 308.210602,285.732086 
	C309.851044,291.886200 310.543091,298.154266 312.089691,304.203857 
	C313.657745,310.337341 317.224823,311.316193 326.766632,310.780579 
	C332.777130,310.443237 330.965393,305.963806 331.856964,302.908173 
	C332.504822,300.687744 332.708252,298.337708 333.736237,296.487091 
	C334.251678,299.761719 334.853088,303.025604 335.265167,306.313171 
	C336.202484,313.790619 340.409576,314.127563 349.825623,314.811951 
	C353.872803,315.106079 355.706085,311.842102 356.016022,305.647278 
	C356.247742,301.014984 356.603790,296.388947 356.904480,291.760101 
	C357.166138,291.763306 357.427826,291.766510 357.689484,291.769684 
	C358.855469,296.140564 360.021423,300.511414 361.275146,305.211243 
	C362.154327,304.518097 362.591064,304.278717 362.889618,303.923248 
	C374.407928,290.210785 383.869202,288.555023 399.523102,297.542084 
	C400.962494,298.368439 402.290070,299.449341 403.812683,300.048187 
	C404.694611,300.395050 405.862610,300.014465 407.191559,300.563171 
	C408.778656,302.083710 410.365723,303.604279 411.886597,305.801117 
	C409.155426,308.024780 406.424286,310.248474 402.970215,313.060730 
	C408.314697,316.191040 412.088165,318.401215 415.924957,321.422211 
	C417.639801,326.263062 419.213928,331.161774 421.164368,335.905762 
	C421.678223,337.155640 423.236267,338.569946 424.518707,338.807343 
	C430.097687,339.839996 435.354462,336.784119 436.996307,331.330017 
	C438.276489,327.077332 438.803711,322.598022 439.715179,317.967285 
	C440.141144,319.316803 440.609467,320.650238 440.978394,322.010620 
	C441.367706,323.446014 441.568115,324.936737 442.014526,326.351746 
	C443.844513,332.152313 445.748718,333.090485 451.646301,331.101593 
	C453.211884,330.573608 454.925720,330.138367 456.187927,329.163727 
	C457.265900,328.331390 458.494812,326.765411 458.458099,325.560455 
	C458.033234,311.622437 457.403015,297.690308 456.760986,283.759705 
	C456.672729,281.844849 456.224945,279.946533 455.853760,277.431702 
	C442.256714,280.369354 429.183716,283.193787 415.946381,285.260406 
	C415.625916,283.773376 415.305450,282.286316 415.225800,280.642914 
M522.997986,267.939117 
	C540.700134,264.539673 558.402344,261.140198 576.900696,257.910156 
	C581.330444,256.251160 586.872253,255.724915 589.957214,252.696167 
	C596.280212,246.488419 602.059448,239.407990 606.654907,231.832886 
	C613.876343,219.929138 615.183899,206.235825 616.472534,192.569260 
	C618.429993,171.809250 625.332947,166.249817 646.144897,166.724884 
	C653.266663,166.887436 660.480469,166.737701 667.520996,165.773010 
	C675.948181,164.618286 680.640625,158.502289 680.471130,150.124008 
	C680.411072,147.154190 679.823181,144.190689 679.411682,141.233292 
	C678.613647,135.498260 677.144226,129.776520 677.080688,124.036781 
	C676.963135,113.413834 683.858521,107.900536 694.363586,109.534111 
	C697.314880,109.993042 700.211426,110.804543 703.132446,111.457268 
	C712.336487,113.513969 721.642456,109.908844 726.501465,102.018730 
	C728.540161,98.708282 729.269348,94.935219 728.068420,90.164276 
	C726.683105,91.322052 725.897522,91.689598 725.561279,92.303368 
	C721.100952,100.445290 713.725098,102.987038 705.063782,103.045525 
	C698.905884,103.087112 692.739197,102.837128 686.591003,103.083168 
	C673.938782,103.589508 667.297058,112.023010 669.513794,124.461815 
	C670.763672,131.475525 672.445129,138.442703 673.188538,145.509079 
	C674.263672,155.727646 669.468872,160.869400 659.315186,161.008820 
	C655.678589,161.058746 652.018616,160.688950 648.396606,160.272797 
	C637.487732,159.019470 627.128479,159.600586 618.908081,168.252182 
	C612.161377,175.352798 610.541321,184.262131 610.009705,193.520096 
	C608.516357,219.524765 599.459961,241.328110 575.300842,254.935226 
	C572.236206,253.989441 568.879883,251.718262 566.155334,252.317825 
	C551.020508,255.648422 536.039001,259.676117 520.212952,263.268341 
	C516.451538,263.913483 512.650757,264.397980 508.953888,265.306030 
	C507.906158,265.563416 506.344910,267.128998 506.419800,267.969971 
	C506.744476,271.616699 507.587280,275.217285 508.453979,280.008118 
	C513.615356,275.379486 517.892517,271.543823 522.997986,267.939117 
M415.875549,377.153381 
	C415.241608,380.962311 414.607666,384.771240 413.924194,388.877716 
	C431.676270,387.980042 432.223694,375.202881 433.767517,362.926575 
	C435.066650,368.514191 436.365784,374.101807 437.642700,379.593872 
	C452.994629,379.741821 452.332214,368.148407 454.519501,358.085083 
	C455.916138,362.609161 457.312775,367.133240 458.709442,371.657318 
	C459.205719,371.571716 459.701996,371.486115 460.198242,371.400513 
	C459.573761,360.020996 458.949280,348.641479 458.300354,336.816986 
	C446.819092,339.722107 436.191437,342.245392 425.666565,345.142120 
	C420.137177,346.663910 416.853760,350.634155 415.206696,356.002625 
	C412.212433,357.809875 409.218201,359.617157 405.723907,361.726257 
	C409.431671,367.022430 412.712921,371.709412 415.875549,377.153381 
M282.728363,312.267212 
	C269.689972,309.828064 256.660706,307.338654 243.608994,304.972992 
	C237.869827,303.932709 232.085037,303.144318 225.529358,302.117615 
	C231.541672,315.843018 237.147934,328.641388 242.923843,341.827087 
	C246.619934,341.479828 251.059174,341.062744 255.353394,340.659271 
	C256.071777,338.992218 256.688965,337.559967 257.561249,335.535767 
	C262.282288,341.180511 266.590912,346.332123 271.545624,352.256256 
	C276.027039,343.243927 280.069763,335.113861 284.816956,326.959106 
	C286.385651,326.053406 287.962036,325.160706 289.521820,324.239929 
	C299.185120,318.535492 308.736511,318.411499 317.938263,325.133087 
	C321.525940,327.753723 324.769531,330.845398 328.460327,333.968353 
	C332.180725,329.782135 335.807617,325.701111 339.318787,321.750305 
	C336.294556,321.063141 333.726196,320.651398 331.270782,319.880035 
	C327.854462,318.806854 324.612701,316.928558 321.136719,316.344910 
	C313.118500,314.998718 305.019257,314.070007 296.922852,313.279419 
	C292.366852,312.834503 287.751129,313.000549 282.728363,312.267212 
M462.037567,529.036865 
	C462.037567,529.036865 462.108948,529.109009 462.304443,529.976685 
	C460.436859,544.727234 460.623413,560.043762 448.601440,571.611877 
	C445.399872,574.692566 446.712158,582.132812 449.989380,585.469543 
	C453.109985,588.646851 456.965515,589.399963 460.301300,586.528015 
	C468.129303,579.788391 475.746368,572.672607 479.766296,562.831421 
	C494.169434,527.570679 494.345825,491.570587 484.862274,455.175781 
	C483.560272,450.178955 480.044983,446.645538 474.899445,445.706451 
	C470.025391,444.816864 466.993530,448.438446 465.154785,452.063416 
	C462.858948,456.589600 461.608704,461.655914 460.003845,466.520966 
	C455.639923,479.750031 451.359406,493.006805 446.931549,506.214264 
	C446.581421,507.258636 445.348480,508.007050 444.525848,508.893005 
	C443.841980,507.903809 442.892273,507.002075 442.531677,505.906464 
	C441.860016,503.865784 441.521027,501.714508 441.061493,499.605377 
	C438.693542,488.737122 436.660004,477.782074 433.860962,467.026184 
	C431.703644,458.736359 422.995819,454.879517 416.957855,459.104401 
	C412.654602,462.115570 408.939423,465.965912 408.924011,471.645782 
	C408.892914,483.109619 409.099487,494.577820 409.430786,506.037781 
	C409.677856,514.584961 411.009979,522.864990 415.787506,530.333130 
	C425.427521,545.402039 443.009521,547.590881 455.560760,535.130493 
	C457.664093,533.042419 459.830322,531.017639 462.037567,529.036865 
M150.098083,330.173035 
	C146.399155,343.225098 145.353546,356.481476 146.709518,369.984985 
	C147.436478,377.224365 147.742233,384.506012 148.045181,391.960052 
	C148.045181,391.960052 147.855087,392.154266 147.192688,392.000610 
	C140.078140,386.626129 134.391815,380.099365 133.174896,371.001556 
	C131.747116,360.327332 129.964447,349.532501 130.237061,338.838470 
	C130.641663,322.967194 137.547363,309.518188 150.565048,300.047516 
	C156.130127,295.998779 162.646423,293.234039 168.811157,290.041626 
	C172.607193,288.075806 177.662598,281.536865 176.978867,278.288818 
	C175.948853,273.395630 171.817291,271.333221 167.541992,270.487457 
	C163.217087,269.631927 158.614853,269.224792 154.251144,269.698761 
	C141.456741,271.088440 131.682770,278.752136 123.525734,287.650787 
	C117.132538,294.625275 112.161469,303.181976 107.782028,311.667175 
	C97.933464,330.748810 92.160400,350.789093 95.901390,372.702332 
	C101.569565,405.904236 125.732498,431.901215 161.779709,430.358215 
	C165.188538,430.212280 168.899887,431.705475 172.103394,433.216553 
	C181.419525,437.610779 190.434387,442.650757 199.794891,446.941254 
	C205.318298,449.472961 209.789536,447.742218 212.247925,443.216003 
	C215.209213,437.763916 214.211838,433.857513 208.721222,429.988617 
	C205.085815,427.427002 201.352417,425.004456 197.345016,422.305603 
	C202.469177,414.463623 207.699051,407.169708 212.195175,399.448517 
	C226.783981,374.395020 231.555908,348.450500 218.851166,320.950958 
	C212.472580,307.144501 199.813751,298.278809 185.489578,299.175079 
	C176.464264,299.739807 167.909592,302.242859 161.311996,310.087585 
	C157.586868,316.528992 153.861725,322.970398 150.098083,330.173035 
M473.243134,374.289825 
	C473.514618,381.772888 473.835815,389.254639 474.039581,396.739532 
	C474.168121,401.461365 472.560638,405.412567 469.000336,408.742371 
	C467.566925,410.082977 466.431702,412.282410 466.157410,414.231262 
	C464.790924,423.940002 470.278076,429.519470 480.172729,428.526001 
	C487.449554,427.795410 494.693268,425.913391 501.946808,425.939026 
	C518.709839,425.998260 535.480530,426.696136 552.226990,427.549500 
	C561.623596,428.028290 569.806274,422.393555 571.602844,413.280273 
	C573.232361,405.014862 567.841248,397.286011 558.459839,395.037231 
	C555.112976,394.235016 551.545471,394.128387 548.075745,394.102966 
	C534.449341,394.003052 520.821777,394.062073 507.060486,394.062073 
	C506.624420,392.031860 506.119751,390.433624 505.954559,388.800995 
	C503.276459,362.330872 501.061096,335.805450 497.852386,309.400482 
	C495.631378,291.123688 492.193604,272.987152 489.003540,254.839935 
	C487.930145,248.733765 480.648224,245.017990 476.662811,248.342712 
	C472.842316,251.529861 469.642181,255.381470 469.930481,261.036407 
	C470.354034,269.345398 470.597229,277.664703 470.831909,285.982025 
	C471.653503,315.097595 472.438477,344.214233 473.243134,374.289825 
M278.487885,382.045715 
	C277.073730,387.380310 275.659546,392.714905 274.077637,398.682312 
	C268.176544,393.557892 267.790070,387.146332 266.026215,381.373230 
	C264.231628,375.499664 262.900787,369.462433 260.760681,363.722900 
	C258.782166,358.416748 252.373337,354.677582 248.241287,355.622803 
	C243.094284,356.800201 240.168945,361.047546 239.910721,367.645111 
	C239.793610,370.637543 239.444382,373.628693 239.474319,376.617706 
	C239.622131,391.382080 241.260223,405.814514 248.577545,419.082214 
	C258.118286,436.381378 275.192810,438.392426 287.885529,423.515503 
	C290.685242,420.234009 293.126678,416.648224 295.769409,413.230591 
	C296.615143,412.136902 297.577881,411.133636 298.794617,409.735596 
	C300.076447,413.116577 300.942963,415.976166 302.217255,418.640778 
	C304.689606,423.810669 308.748260,426.147430 313.764648,425.623047 
	C319.673157,425.005402 323.808044,421.677063 324.991241,415.957306 
	C325.657196,412.738098 325.964417,409.337494 325.752106,406.062805 
	C324.944733,393.610504 324.448456,381.091919 322.684113,368.762970 
	C321.378601,359.640320 318.673126,350.649261 315.842041,341.840393 
	C314.239197,336.853210 310.001465,333.518433 304.509308,333.338898 
	C298.871552,333.154602 294.807220,336.376953 291.995453,341.099487 
	C290.893707,342.949890 289.843353,344.903778 289.207886,346.946869 
	C285.655609,358.367798 282.237518,369.830475 278.487885,382.045715 
M285.299347,453.723907 
	C282.715149,454.324188 280.058838,454.712341 277.559235,455.561554 
	C266.905396,459.181244 262.300598,465.631104 263.007050,476.911499 
	C263.764404,489.003998 265.043182,501.065002 266.162781,513.133423 
	C267.396667,526.433289 271.342834,538.813782 279.197357,549.735474 
	C280.205902,551.137878 282.046661,552.518250 283.690216,552.796448 
	C297.033936,555.055420 308.179749,550.465149 317.569183,541.151611 
	C335.343903,523.520447 338.638000,493.366730 324.757080,472.261017 
	C315.718964,458.518677 302.779846,452.013580 285.299347,453.723907 
M344.839752,519.503296 
	C346.756989,524.418579 347.882507,529.866943 350.757965,534.136963 
	C356.566681,542.763062 365.219971,546.648682 375.729706,545.463074 
	C386.744934,544.220459 392.684753,537.147766 395.725159,527.167664 
	C396.932037,523.206055 397.695984,519.105286 398.579407,515.049988 
	C401.678680,500.822540 400.246521,487.275391 392.256409,474.803833 
	C383.892487,461.748779 367.359894,457.072266 354.776276,463.950836 
	C350.611847,466.227234 348.477112,469.055939 349.837494,474.004730 
	C350.670135,477.033844 351.229187,480.182953 351.468048,483.312012 
	C351.592010,484.935638 351.218445,486.981689 350.274567,488.240967 
	C343.339966,497.492981 342.659637,507.799255 344.839752,519.503296 
M535.180786,441.530182 
	C523.785522,443.378357 514.104980,448.379578 506.305969,456.992981 
	C501.289886,462.532867 499.528839,468.611267 502.982086,476.993164 
	C509.352753,473.982269 515.555786,471.012634 521.792236,468.114929 
	C527.052979,465.670593 532.269653,463.089844 537.687073,461.051117 
	C539.237366,460.467682 542.300720,460.933044 543.089478,462.041962 
	C544.101501,463.464630 543.761841,466.050690 543.529663,468.081207 
	C543.389404,469.307434 542.427002,470.482300 541.698914,471.591583 
	C537.589966,477.851685 533.402649,484.060455 529.313354,490.333252 
	C523.958557,498.547394 517.944946,506.438049 513.543335,515.139832 
	C508.457214,525.194824 506.032104,535.932983 515.426819,546.996216 
	C519.191345,543.614197 523.728821,540.837646 526.486084,536.834778 
	C538.194885,519.836731 549.696533,502.673462 560.555054,485.125732 
	C563.838379,479.819824 566.174316,473.167969 566.569092,466.981049 
	C567.628296,450.383667 554.839966,440.129852 535.180786,441.530182 
M562.809021,351.246063 
	C560.837219,351.520721 558.824097,351.626709 556.900696,352.098602 
	C547.601685,354.379883 538.082092,356.083679 529.123718,359.326508 
	C522.417725,361.754028 520.664612,368.754150 524.982666,374.047058 
	C527.093140,376.634033 531.290588,378.817261 534.591614,378.886475 
	C543.864746,379.080811 553.175354,378.238434 562.447327,377.504242 
	C569.720703,376.928345 577.027710,376.283478 584.193787,374.977875 
	C592.136169,373.530792 596.096436,367.328522 594.817871,359.629089 
	C593.648071,352.584717 587.388123,348.465057 579.555359,349.444641 
	C574.284790,350.103760 568.991516,350.580505 562.809021,351.246063 
M342.714417,421.442902 
	C341.297852,428.484985 344.911316,433.394073 352.291016,432.943298 
	C369.212433,431.909760 386.115051,430.449646 402.986084,428.768921 
	C409.496338,428.120361 412.530518,423.511292 413.153473,417.151031 
	C414.023193,408.270874 404.889709,402.384613 395.812775,404.119659 
	C382.600372,406.645203 369.333282,408.949402 356.017700,410.842773 
	C349.539215,411.763916 345.213013,414.643555 342.714417,421.442902 
M403.443634,346.949432 
	C407.728851,342.438873 408.458771,337.404968 405.611176,332.001343 
	C403.045929,327.133514 398.865997,325.410522 392.480591,326.476898 
	C387.086304,327.377777 381.652222,328.056152 376.278900,329.063171 
	C367.476685,330.712860 358.646271,332.287415 349.946838,334.387115 
	C342.525360,336.178375 339.423340,341.890869 341.175415,349.201935 
	C342.781555,355.904053 348.281036,358.949371 355.795288,357.480835 
	C362.301636,356.209259 368.886841,355.317719 375.359192,353.901581 
	C384.542603,351.892212 393.654480,349.555664 403.443634,346.949432 
M585.355225,292.924683 
	C589.945007,287.848541 590.248596,283.845245 585.861694,278.871094 
	C581.444885,273.863068 575.796814,270.822632 569.005310,272.338806 
	C556.237610,275.189240 543.520996,278.318298 530.905640,281.778473 
	C525.106079,283.369293 521.638000,290.573914 523.214294,296.001923 
	C524.472107,300.333282 531.302063,304.044800 536.593933,303.237488 
	C543.816101,302.135559 551.095642,301.300812 558.237549,299.809814 
	C567.132507,297.952820 575.912231,295.543793 585.355225,292.924683 
M525.151489,326.966858 
	C522.272400,334.423370 527.345215,342.319824 535.641418,341.839294 
	C548.212341,341.111084 560.727234,339.363068 573.248657,337.900726 
	C574.819824,337.717224 576.388489,336.803741 577.782776,335.943817 
	C582.593384,332.976837 583.638977,327.622589 580.227844,323.081726 
	C576.092163,317.576294 570.632263,315.022797 563.684570,316.338562 
	C553.743347,318.221222 543.767761,319.958923 533.901794,322.180328 
	C530.973145,322.839722 528.363708,324.916840 525.151489,326.966858 
M395.255737,373.122955 
	C392.276123,370.204803 388.666412,369.506226 384.674164,370.077484 
	C379.911224,370.759033 375.079620,371.113281 370.391937,372.133759 
	C362.788849,373.788818 355.204803,375.625519 347.758392,377.869019 
	C343.613861,379.117645 341.667389,382.467529 342.899139,386.893524 
	C344.024261,390.936493 345.184387,394.718109 351.019226,394.205536 
	C360.608795,393.363068 370.263916,393.297150 379.876831,392.677673 
	C384.826904,392.358704 389.851990,391.996887 394.650665,390.849304 
	C400.257507,389.508484 402.545837,384.085266 399.981415,379.147430 
	C398.933350,377.129364 397.204681,375.464722 395.255737,373.122955 
M430.151672,425.318115 
	C430.972809,421.212921 431.793976,417.107758 432.719788,412.479187 
	C434.423920,416.487091 436.040863,420.289948 437.510254,423.745819 
	C446.912231,422.212555 450.692932,416.995850 450.155304,408.276459 
	C449.979858,405.431732 450.501923,403.139496 454.363739,402.239807 
	C456.548553,401.730804 458.846954,398.818848 459.793213,396.465973 
	C461.985260,391.015472 460.636505,385.572845 458.287384,380.088867 
	C444.579102,384.750732 431.210022,389.297272 416.576019,394.273956 
	C427.313965,404.598877 428.971497,415.910583 425.872498,429.300507 
	C427.786865,427.617279 428.751251,426.769348 430.151672,425.318115 
M658.920349,388.015656 
	C668.952271,391.636200 674.188110,399.036682 676.203430,409.281952 
	C676.807007,412.350006 678.525330,415.198822 679.732971,418.148102 
	C682.077637,404.963013 677.614929,394.812531 667.158752,387.559723 
	C661.845703,383.874420 656.304810,380.492859 650.712036,377.240326 
	C635.151672,368.191193 609.585144,372.062378 597.247314,385.203918 
	C603.540344,391.759338 607.087402,391.852356 613.546509,385.812439 
	C616.812988,382.757874 619.958374,379.456116 623.645874,376.996674 
	C629.370667,373.178345 635.243530,374.443085 639.983826,379.916840 
	C638.808655,381.831146 637.548523,383.772247 636.398315,385.776459 
	C631.299683,394.660980 631.385986,392.386108 639.082581,398.312927 
	C639.213867,398.413971 639.373169,398.486481 639.483643,398.605530 
	C641.715149,401.009644 643.895813,400.539154 645.881958,398.355499 
	C648.557373,395.413940 650.990234,392.237488 653.814575,389.453369 
	C654.812866,388.469208 656.655518,388.341553 658.920349,388.015656 
M635.501526,280.332550 
	C630.571472,281.685944 625.700073,283.348419 620.693420,284.298035 
	C616.446472,285.103516 612.038879,285.038361 607.711304,285.451874 
	C605.515015,285.661743 603.338501,286.077759 601.153015,286.400604 
	C601.185486,286.848145 601.217957,287.295685 601.250366,287.743225 
	C603.907776,289.262909 606.565186,290.782593 609.703003,292.577026 
	C603.058899,300.252838 601.940002,307.907776 608.252869,315.789948 
	C621.590881,312.738007 624.244019,308.483459 620.859619,295.571838 
	C620.817505,295.411102 620.790771,295.238312 620.711426,295.096558 
	C619.163940,292.329315 620.633118,290.830475 622.938293,289.578918 
	C631.155640,285.117401 639.268494,284.653168 647.450562,289.779816 
	C655.545288,294.851746 658.385376,302.301575 657.743591,311.458130 
	C657.663269,312.603668 657.522400,313.744965 657.409607,314.888214 
	C661.548340,308.275970 662.106323,301.585114 658.700684,294.586304 
	C654.132324,285.197968 646.167664,281.353271 635.501526,280.332550 
M114.556122,237.998932 
	C114.061142,238.661713 113.506508,239.288422 113.080734,239.993027 
	C109.951370,245.171585 109.617531,245.270859 105.111168,241.501709 
	C102.924606,239.672836 100.868622,237.687851 98.106773,235.188217 
	C99.587502,246.693176 115.586609,257.704651 125.087807,254.463440 
	C127.782379,253.544205 129.923721,251.003311 132.318802,249.206131 
	C131.993561,248.723129 131.668335,248.240143 131.343109,247.757156 
	C128.747757,248.540665 126.152412,249.324173 123.175339,250.222916 
	C123.021477,246.933060 123.113388,244.106064 122.710213,241.351532 
	C122.030869,236.710190 119.415100,235.472443 114.556122,237.998932 
M646.512207,228.324188 
	C651.928345,231.984100 658.564148,232.396347 663.440735,228.815536 
	C667.846558,225.580399 671.798889,221.734772 676.105347,218.354782 
	C679.464233,215.718475 680.022949,212.343689 679.888245,207.240860 
	C676.277527,211.775543 673.432678,215.348373 670.650879,218.842010 
	C665.812988,217.089661 661.262634,215.441422 656.007812,213.538040 
	C656.007812,218.695190 656.007812,222.802277 656.007812,227.455139 
	C653.728271,227.008240 651.984985,226.424759 650.235779,226.406586 
	C649.023193,226.393967 647.802612,227.160172 646.512207,228.324188 
M509.813019,554.088257 
	C508.748657,554.519958 507.559723,554.773071 506.641144,555.413757 
	C502.358856,558.400818 501.342041,566.402771 504.629669,570.571533 
	C507.034790,573.621277 511.988129,574.042114 515.305359,571.247314 
	C518.626892,568.448792 521.104919,564.802551 519.748596,560.413269 
	C518.496399,556.360962 515.013794,554.230164 509.813019,554.088257 
M377.157562,308.497192 
	C373.456024,312.637390 367.468445,315.396942 368.598785,324.103394 
	C372.025421,322.805695 375.027893,322.056305 377.606415,320.570984 
	C379.715820,319.355835 381.121674,316.955261 383.189850,315.625031 
	C387.221252,313.032166 385.959930,309.714081 384.055878,307.109192 
	C383.464600,306.300293 379.914612,307.654053 377.157562,308.497192 
z"/>
<path fill="#0A0706" opacity="1.000000" stroke="none" 
	d="
M411.952820,305.124817 
	C410.365723,303.604279 408.778656,302.083710 407.111816,299.825470 
	C406.632355,294.408691 406.232697,289.729584 405.833008,285.050507 
	C406.238007,283.347534 406.643005,281.644562 407.155518,279.153473 
	C407.567871,268.228729 408.037384,258.093201 408.104187,247.954987 
	C408.134949,243.288269 404.834747,241.577728 400.552429,241.011124 
	C389.721039,239.577988 378.922302,237.898819 368.093323,236.446075 
	C356.774597,234.927612 345.435822,233.558472 333.722046,231.974777 
	C332.546448,231.589828 331.769104,231.267792 330.960510,231.131775 
	C322.262848,229.668915 313.569153,228.178711 304.856049,226.812927 
	C298.596985,225.831772 292.310181,225.027451 285.628052,224.028442 
	C283.272858,223.449158 281.332245,222.954575 279.376862,222.527420 
	C269.273865,220.320450 259.195923,217.985245 249.053223,215.977661 
	C239.693512,214.125015 230.273697,212.565491 220.859299,211.003860 
	C215.712952,210.150177 210.522964,209.559662 205.352646,208.850494 
	C203.558670,206.087067 201.764709,203.323654 200.526917,200.415405 
	C207.894608,201.291489 214.724777,202.202255 221.514145,203.353622 
	C243.029480,207.002319 264.529602,210.740875 286.362457,214.619781 
	C290.424194,215.387894 294.155243,216.006256 297.894623,216.569229 
	C310.299042,218.436783 322.706451,220.284393 335.471069,222.245972 
	C337.352203,222.900467 338.833740,223.701172 340.404205,223.958160 
	C358.505371,226.919952 376.613861,229.838684 394.733856,232.682968 
	C402.996613,233.979980 411.289276,235.086700 420.111694,236.358002 
	C419.044525,216.471863 418.016541,197.315170 416.994537,178.270828 
	C397.787781,175.722931 379.376434,173.290604 360.968292,170.833847 
	C353.074707,169.780380 345.187897,168.676071 336.970276,167.368881 
	C327.329346,165.754639 318.019165,164.345566 308.701965,162.984955 
	C301.799316,161.976944 294.887512,161.031937 287.638062,159.927826 
	C259.376862,155.406158 231.457397,151.015549 203.537933,146.624939 
	C221.549713,138.089508 239.561508,129.554092 258.307434,121.112656 
	C261.788239,121.664024 264.519714,122.266907 267.284027,122.554474 
	C281.928345,124.077911 296.571411,125.628517 311.234955,126.946274 
	C317.991486,127.553459 324.790833,127.754967 331.576263,127.947586 
	C337.158630,128.106049 342.749084,127.979919 348.556854,127.979919 
	C348.733826,126.033073 348.898254,124.575356 348.994019,123.113144 
	C349.558197,114.498833 349.448853,114.307632 340.962280,111.723885 
	C334.640564,109.799210 328.283203,107.991501 321.960815,106.068909 
	C320.777740,105.709145 319.685028,105.052185 318.550629,104.532379 
	C318.707794,104.084564 318.864990,103.636757 319.022156,103.188942 
	C326.873596,104.734856 334.725006,106.280762 342.576416,107.826675 
	C342.067383,105.640465 341.069855,104.420959 339.902710,103.394279 
	C336.035126,99.992188 332.050934,96.720589 328.240967,93.256531 
	C327.312958,92.412773 326.880127,91.024391 326.219574,89.886421 
	C326.666626,89.591034 327.113647,89.295639 327.560699,89.000244 
	C335.171356,94.823387 342.782013,100.646538 350.594574,106.624184 
	C354.813782,102.616890 358.894897,98.740738 363.289612,94.986992 
	C362.571411,97.116875 361.616180,99.168259 360.494171,101.123940 
	C356.474457,108.130211 353.598328,115.509758 354.165405,123.717079 
	C354.432648,127.584312 354.512390,132.288284 359.090332,133.776184 
	C369.452179,137.143936 379.849976,137.270096 390.591858,132.466766 
	C379.838196,119.559280 378.660461,104.835846 382.028717,88.796043 
	C376.076752,89.977058 371.094391,90.965683 366.053253,91.594269 
	C363.869843,87.131706 361.745178,83.029190 359.620544,78.926674 
	C369.967010,80.036461 380.313477,81.146248 390.809570,82.649361 
	C384.400818,89.731567 382.943512,97.795311 384.393677,107.092300 
	C385.253418,106.641327 385.824585,106.393715 386.342255,106.062439 
	C394.861816,100.610603 403.341064,95.094307 411.927032,89.749374 
	C413.144409,88.991539 414.873779,89.056137 416.366180,88.740082 
	C416.485870,89.276543 416.605560,89.813004 416.725281,90.349464 
	C406.224884,97.298325 395.724487,104.247185 385.224091,111.196045 
	C385.542450,111.777351 385.860840,112.358658 386.179199,112.939957 
	C400.178833,109.665787 414.178497,106.391624 428.652649,103.006477 
	C428.749939,104.728882 428.827362,106.100159 428.906006,107.492317 
	C414.875854,110.773827 401.283600,113.952911 387.522308,117.171532 
	C390.134705,126.789314 395.850739,132.252228 405.141541,133.933990 
	C417.188690,136.114639 429.236389,138.293167 441.273590,140.527725 
	C453.657776,142.826691 466.046478,145.213562 478.731354,144.135971 
	C488.044220,143.344849 492.367462,137.975769 491.360718,128.762268 
	C490.171722,117.881111 488.881958,107.010948 487.635895,96.136024 
	C496.079926,97.756218 504.560791,99.206902 512.959961,101.033318 
	C528.532776,104.419624 544.061279,108.010056 559.597778,111.561348 
	C561.348511,111.961533 563.031677,112.657089 564.513733,113.608200 
	C547.371094,121.969276 530.460938,129.937836 513.212646,137.944412 
	C500.260010,143.670212 487.645569,149.357986 474.666504,154.921722 
	C471.037659,156.370132 467.788086,157.973907 464.506622,159.509399 
	C452.682617,165.042175 440.784149,170.421005 429.047272,176.132294 
	C424.089447,178.544830 421.322113,182.418091 421.942169,188.547623 
	C422.978302,198.790207 423.396393,209.093994 424.183807,219.363647 
	C424.558716,224.253723 425.184845,229.124512 425.760986,234.611801 
	C444.427856,226.530396 462.433319,218.735306 480.753967,210.858963 
	C493.680634,205.157303 506.292145,199.536911 519.285461,193.873489 
	C523.792053,192.312515 527.963928,190.910309 532.033264,189.255890 
	C546.928223,183.200226 561.788940,177.060623 576.676514,170.918152 
	C576.690430,170.883667 576.666016,170.813416 576.666016,170.813416 
	C578.114929,176.080963 576.374268,179.674988 570.480469,181.638199 
	C552.386841,189.323853 534.915527,196.787781 517.176636,204.400208 
	C504.868927,209.751297 492.828735,214.953888 480.434387,220.202271 
	C458.386536,228.934067 436.692902,237.620071 414.653229,246.521759 
	C414.244690,258.087769 414.182159,269.438110 414.075928,281.199188 
	C413.769592,283.220825 413.390503,284.822662 413.265045,286.444122 
	C412.783508,292.667603 412.383331,298.897400 411.952820,305.124817 
M345.509491,162.644455 
	C355.450653,161.130325 362.434540,154.101044 372.019897,149.444260 
	C363.178894,144.506424 355.690460,139.945938 347.860870,136.075592 
	C342.028381,133.192459 335.407684,131.065308 329.227051,134.295441 
	C318.266937,140.023468 307.716278,146.535065 295.756470,153.432739 
	C312.813751,158.437653 328.708832,160.705872 345.509491,162.644455 
z"/>
<path fill="#FB2FAC" opacity="1.000000" stroke="none" 
	d="
M161.995087,310.000458 
	C167.909592,302.242859 176.464264,299.739807 185.489578,299.175079 
	C199.813751,298.278809 212.472580,307.144501 218.851166,320.950958 
	C231.555908,348.450500 226.783981,374.395020 212.195175,399.448517 
	C207.699051,407.169708 202.469177,414.463623 197.345016,422.305603 
	C201.352417,425.004456 205.085815,427.427002 208.721222,429.988617 
	C214.211838,433.857513 215.209213,437.763916 212.247925,443.216003 
	C209.789536,447.742218 205.318298,449.472961 199.794891,446.941254 
	C190.434387,442.650757 181.419525,437.610779 172.103394,433.216553 
	C168.899887,431.705475 165.188538,430.212280 161.779709,430.358215 
	C125.732498,431.901215 101.569565,405.904236 95.901390,372.702332 
	C92.160400,350.789093 97.933464,330.748810 107.782028,311.667175 
	C112.161469,303.181976 117.132538,294.625275 123.525734,287.650787 
	C131.682770,278.752136 141.456741,271.088440 154.251144,269.698761 
	C158.614853,269.224792 163.217087,269.631927 167.541992,270.487457 
	C171.817291,271.333221 175.948853,273.395630 176.978867,278.288818 
	C177.662598,281.536865 172.607193,288.075806 168.811157,290.041626 
	C162.646423,293.234039 156.130127,295.998779 150.565048,300.047516 
	C137.547363,309.518188 130.641663,322.967194 130.237061,338.838470 
	C129.964447,349.532501 131.747116,360.327332 133.174896,371.001556 
	C134.391815,380.099365 140.078140,386.626129 147.605301,392.265869 
	C148.236481,392.486267 148.455063,392.441376 148.673630,392.396515 
	C148.528427,392.187195 148.383240,391.977905 148.238052,391.768585 
	C147.742233,384.506012 147.436478,377.224365 146.709518,369.984985 
	C145.353546,356.481476 146.399155,343.225098 150.388824,330.044769 
	C150.906067,333.233154 151.132584,336.549805 151.359100,339.866455 
	C151.789520,339.931061 152.219940,339.995697 152.650360,340.060303 
	C156.312668,331.252838 160.049789,322.474609 163.518768,313.591644 
	C163.857178,312.725067 162.542465,311.212952 161.995087,310.000458 
M201.448334,360.822083 
	C201.596954,354.064056 202.476730,347.219727 201.691757,340.571930 
	C200.881653,333.711243 198.841965,326.860474 193.439468,321.771881 
	C189.160217,317.741241 183.676575,317.549744 179.733780,321.815796 
	C177.662079,324.057343 176.149063,326.973511 174.933411,329.819763 
	C170.328491,340.601562 168.660263,352.080750 170.253662,363.517578 
	C171.826782,374.808929 175.138351,385.858063 177.910263,397.989441 
	C189.205887,386.840790 198.223740,376.158569 201.448334,360.822083 
M119.685936,403.834808 
	C117.634224,401.958191 115.582504,400.081573 113.330788,398.022034 
	C114.461067,408.004028 131.592239,422.743591 141.591446,421.970398 
	C134.225952,415.817474 127.264214,410.001831 119.685936,403.834808 
z"/>
<path fill="#F82BA6" opacity="1.000000" stroke="none" 
	d="
M487.533813,95.784897 
	C488.881958,107.010948 490.171722,117.881111 491.360718,128.762268 
	C492.367462,137.975769 488.044220,143.344849 478.731354,144.135971 
	C466.046478,145.213562 453.657776,142.826691 441.273590,140.527725 
	C429.236389,138.293167 417.188690,136.114639 405.141541,133.933990 
	C395.850739,132.252228 390.134705,126.789314 387.522308,117.171532 
	C401.283600,113.952911 414.875854,110.773827 428.906006,107.492317 
	C428.827362,106.100159 428.749939,104.728882 428.652649,103.006477 
	C414.178497,106.391624 400.178833,109.665787 386.179199,112.939957 
	C385.860840,112.358658 385.542450,111.777351 385.224091,111.196045 
	C395.724487,104.247185 406.224884,97.298325 416.725281,90.349464 
	C416.605560,89.813004 416.485870,89.276543 416.366180,88.740082 
	C414.873779,89.056137 413.144409,88.991539 411.927032,89.749374 
	C403.341064,95.094307 394.861816,100.610603 386.342255,106.062439 
	C385.824585,106.393715 385.253418,106.641327 384.393677,107.092300 
	C382.943512,97.795311 384.400818,89.731567 391.212097,82.884048 
	C393.508240,81.390259 395.647125,80.180031 397.579559,78.700203 
	C413.382446,66.598557 429.066345,54.339237 444.989960,42.399338 
	C448.227539,39.971729 452.196960,38.329006 456.055939,36.967796 
	C461.305969,35.115898 466.035004,36.770966 469.042511,41.472530 
	C471.071686,44.644760 472.771820,48.156647 473.920044,51.740574 
	C478.571106,66.257820 482.951477,80.861794 487.533813,95.784897 
z"/>
<path fill="#F92AA7" opacity="1.000000" stroke="none" 
	d="
M362.976044,94.864594 
	C358.894897,98.740738 354.813782,102.616890 350.594574,106.624184 
	C342.782013,100.646538 335.171356,94.823387 327.560699,89.000244 
	C327.113647,89.295639 326.666626,89.591034 326.219574,89.886421 
	C326.880127,91.024391 327.312958,92.412773 328.240967,93.256531 
	C332.050934,96.720589 336.035126,99.992188 339.902710,103.394279 
	C341.069855,104.420959 342.067383,105.640465 342.576416,107.826675 
	C334.725006,106.280762 326.873596,104.734856 319.022156,103.188942 
	C318.864990,103.636757 318.707794,104.084564 318.550629,104.532379 
	C319.685028,105.052185 320.777740,105.709145 321.960815,106.068909 
	C328.283203,107.991501 334.640564,109.799210 340.962280,111.723885 
	C349.448853,114.307632 349.558197,114.498833 348.994019,123.113144 
	C348.898254,124.575356 348.733826,126.033073 348.556854,127.979919 
	C342.749084,127.979919 337.158630,128.106049 331.576263,127.947586 
	C324.790833,127.754967 317.991486,127.553459 311.234955,126.946274 
	C296.571411,125.628517 281.928345,124.077911 267.284027,122.554474 
	C264.519714,122.266907 261.788239,121.664024 258.692444,121.054535 
	C252.562836,114.022713 252.058685,106.480316 255.895584,98.625969 
	C266.890564,76.118484 277.999634,53.666729 289.067688,31.194963 
	C289.360962,30.599535 289.677704,30.013462 290.018524,29.443974 
	C296.249481,19.031963 304.781708,17.491226 313.192413,26.250233 
	C323.296356,36.772575 332.615173,48.048889 342.272156,59.000309 
	C347.962128,65.452950 353.648651,71.908615 359.478638,78.644791 
	C361.745178,83.029190 363.869843,87.131706 365.713379,91.635132 
	C364.613525,92.978897 363.794800,93.921753 362.976044,94.864594 
z"/>
<path fill="#FB2EAC" opacity="1.000000" stroke="none" 
	d="
M473.240234,373.810120 
	C472.438477,344.214233 471.653503,315.097595 470.831909,285.982025 
	C470.597229,277.664703 470.354034,269.345398 469.930481,261.036407 
	C469.642181,255.381470 472.842316,251.529861 476.662811,248.342712 
	C480.648224,245.017990 487.930145,248.733765 489.003540,254.839935 
	C492.193604,272.987152 495.631378,291.123688 497.852386,309.400482 
	C501.061096,335.805450 503.276459,362.330872 505.954559,388.800995 
	C506.119751,390.433624 506.624420,392.031860 507.060486,394.062073 
	C520.821777,394.062073 534.449341,394.003052 548.075745,394.102966 
	C551.545471,394.128387 555.112976,394.235016 558.459839,395.037231 
	C567.841248,397.286011 573.232361,405.014862 571.602844,413.280273 
	C569.806274,422.393555 561.623596,428.028290 552.226990,427.549500 
	C535.480530,426.696136 518.709839,425.998260 501.946808,425.939026 
	C494.693268,425.913391 487.449554,427.795410 480.172729,428.526001 
	C470.278076,429.519470 464.790924,423.940002 466.157410,414.231262 
	C466.431702,412.282410 467.566925,410.082977 469.000336,408.742371 
	C472.560638,405.412567 474.168121,401.461365 474.039581,396.739532 
	C473.835815,389.254639 473.514618,381.772888 473.240234,373.810120 
z"/>
<path fill="#FFBA3C" opacity="1.000000" stroke="none" 
	d="
M461.967468,528.963562 
	C459.830322,531.017639 457.664093,533.042419 455.560760,535.130493 
	C443.009521,547.590881 425.427521,545.402039 415.787506,530.333130 
	C411.009979,522.864990 409.677856,514.584961 409.430786,506.037781 
	C409.099487,494.577820 408.892914,483.109619 408.924011,471.645782 
	C408.939423,465.965912 412.654602,462.115570 416.957855,459.104401 
	C422.995819,454.879517 431.703644,458.736359 433.860962,467.026184 
	C436.660004,477.782074 438.693542,488.737122 441.061493,499.605377 
	C441.521027,501.714508 441.860016,503.865784 442.531677,505.906464 
	C442.892273,507.002075 443.841980,507.903809 444.525848,508.893005 
	C445.348480,508.007050 446.581421,507.258636 446.931549,506.214264 
	C451.359406,493.006805 455.639923,479.750031 460.003845,466.520966 
	C461.608704,461.655914 462.858948,456.589600 465.154785,452.063416 
	C466.993530,448.438446 470.025391,444.816864 474.899445,445.706451 
	C480.044983,446.645538 483.560272,450.178955 484.862274,455.175781 
	C494.345825,491.570587 494.169434,527.570679 479.766296,562.831421 
	C475.746368,572.672607 468.129303,579.788391 460.301300,586.528015 
	C456.965515,589.399963 453.109985,588.646851 449.989380,585.469543 
	C446.712158,582.132812 445.399872,574.692566 448.601440,571.611877 
	C460.623413,560.043762 460.436859,544.727234 462.431519,529.500122 
	C462.519562,528.759460 462.480560,528.495361 462.441589,528.231262 
	C462.283539,528.475342 462.125488,528.719421 461.967468,528.963562 
z"/>
<path fill="#FFB93C" opacity="1.000000" stroke="none" 
	d="
M278.630737,381.662292 
	C282.237518,369.830475 285.655609,358.367798 289.207886,346.946869 
	C289.843353,344.903778 290.893707,342.949890 291.995453,341.099487 
	C294.807220,336.376953 298.871552,333.154602 304.509308,333.338898 
	C310.001465,333.518433 314.239197,336.853210 315.842041,341.840393 
	C318.673126,350.649261 321.378601,359.640320 322.684113,368.762970 
	C324.448456,381.091919 324.944733,393.610504 325.752106,406.062805 
	C325.964417,409.337494 325.657196,412.738098 324.991241,415.957306 
	C323.808044,421.677063 319.673157,425.005402 313.764648,425.623047 
	C308.748260,426.147430 304.689606,423.810669 302.217255,418.640778 
	C300.942963,415.976166 300.076447,413.116577 298.794617,409.735596 
	C297.577881,411.133636 296.615143,412.136902 295.769409,413.230591 
	C293.126678,416.648224 290.685242,420.234009 287.885529,423.515503 
	C275.192810,438.392426 258.118286,436.381378 248.577545,419.082214 
	C241.260223,405.814514 239.622131,391.382080 239.474319,376.617706 
	C239.444382,373.628693 239.793610,370.637543 239.910721,367.645111 
	C240.168945,361.047546 243.094284,356.800201 248.241287,355.622803 
	C252.373337,354.677582 258.782166,358.416748 260.760681,363.722900 
	C262.900787,369.462433 264.231628,375.499664 266.026215,381.373230 
	C267.790070,387.146332 268.176544,393.557892 274.077637,398.682312 
	C275.659546,392.714905 277.073730,387.380310 278.630737,381.662292 
z"/>
<path fill="#5AC8B6" opacity="1.000000" stroke="none" 
	d="
M285.721680,453.629120 
	C302.779846,452.013580 315.718964,458.518677 324.757080,472.261017 
	C338.638000,493.366730 335.343903,523.520447 317.569183,541.151611 
	C308.179749,550.465149 297.033936,555.055420 283.690216,552.796448 
	C282.046661,552.518250 280.205902,551.137878 279.197357,549.735474 
	C271.342834,538.813782 267.396667,526.433289 266.162781,513.133423 
	C265.043182,501.065002 263.764404,489.003998 263.007050,476.911499 
	C262.300598,465.631104 266.905396,459.181244 277.559235,455.561554 
	C280.058838,454.712341 282.715149,454.324188 285.721680,453.629120 
M302.916077,486.716248 
	C299.975220,479.957458 294.300262,478.277252 287.096375,478.263733 
	C288.605560,494.201385 290.089996,509.877472 291.591797,525.737061 
	C304.422485,520.415100 312.158203,502.789703 302.916077,486.716248 
M311.340149,504.955933 
	C311.715485,507.081085 312.090851,509.206238 312.658783,512.421936 
	C317.403778,503.413635 316.780518,495.509918 313.276855,487.621643 
	C312.836914,486.631134 311.655334,485.970062 310.817352,485.156372 
	C310.316132,486.391663 309.303864,487.669434 309.402313,488.854919 
	C309.825500,493.950806 310.575104,499.019562 311.340149,504.955933 
z"/>
<path fill="#FCB536" opacity="1.000000" stroke="none" 
	d="
M286.035583,214.444702 
	C264.529602,210.740875 243.029480,207.002319 221.514145,203.353622 
	C214.724777,202.202255 207.894608,201.291489 200.739410,200.113693 
	C199.620438,196.740738 198.622238,193.557739 198.138748,190.298416 
	C197.734406,187.572723 197.932083,184.757721 197.785645,181.140594 
	C194.217667,170.676926 196.851791,161.177765 198.282578,151.654465 
	C199.846710,150.028442 201.410828,148.402405 203.256439,146.700653 
	C231.457397,151.015549 259.376862,155.406158 287.518066,160.238708 
	C287.474213,161.501175 287.208618,162.321716 286.702515,163.454102 
	C286.331726,180.485611 286.201416,197.205292 286.050171,214.054077 
	C286.029205,214.183197 286.035583,214.444702 286.035583,214.444702 
z"/>
<path fill="#58C3B0" opacity="1.000000" stroke="none" 
	d="
M513.550781,137.906372 
	C530.460938,129.937836 547.371094,121.969276 564.650391,113.952133 
	C571.530151,115.228195 574.052124,118.220131 574.833252,126.029007 
	C575.340942,131.103806 575.555542,136.207932 575.910278,142.195129 
	C576.166992,152.378448 576.414795,161.665543 576.662598,170.952637 
	C561.788940,177.060623 546.928223,183.200226 532.033264,189.255890 
	C527.963928,190.910309 523.792053,192.312515 519.123596,193.493652 
	C518.391235,192.372818 518.097229,191.597778 518.029236,190.803421 
	C516.521362,173.172363 515.038452,155.539154 513.550781,137.906372 
z"/>
<path fill="#FB31AD" opacity="1.000000" stroke="none" 
	d="
M344.761780,519.074707 
	C342.659637,507.799255 343.339966,497.492981 350.274567,488.240967 
	C351.218445,486.981689 351.592010,484.935638 351.468048,483.312012 
	C351.229187,480.182953 350.670135,477.033844 349.837494,474.004730 
	C348.477112,469.055939 350.611847,466.227234 354.776276,463.950836 
	C367.359894,457.072266 383.892487,461.748779 392.256409,474.803833 
	C400.246521,487.275391 401.678680,500.822540 398.579407,515.049988 
	C397.695984,519.105286 396.932037,523.206055 395.725159,527.167664 
	C392.684753,537.147766 386.744934,544.220459 375.729706,545.463074 
	C365.219971,546.648682 356.566681,542.763062 350.757965,534.136963 
	C347.882507,529.866943 346.756989,524.418579 344.761780,519.074707 
M367.906769,518.242798 
	C369.189331,520.349121 370.471893,522.455505 371.869690,524.751038 
	C382.097992,514.243042 381.499603,495.633606 371.426849,487.857727 
	C370.995270,489.573517 370.355682,491.283264 370.158508,493.042603 
	C369.247101,501.175537 368.458618,509.322266 367.906769,518.242798 
M354.052734,524.492798 
	C353.167511,523.804810 352.282257,523.116760 351.230865,522.299622 
	C351.497009,533.098389 363.790649,543.983948 372.217010,540.498047 
	C366.210724,535.208374 360.391998,530.083984 354.052734,524.492798 
z"/>
<path fill="#5BC8B7" opacity="1.000000" stroke="none" 
	d="
M535.610168,441.446411 
	C554.839966,440.129852 567.628296,450.383667 566.569092,466.981049 
	C566.174316,473.167969 563.838379,479.819824 560.555054,485.125732 
	C549.696533,502.673462 538.194885,519.836731 526.486084,536.834778 
	C523.728821,540.837646 519.191345,543.614197 515.426819,546.996216 
	C506.032104,535.932983 508.457214,525.194824 513.543335,515.139832 
	C517.944946,506.438049 523.958557,498.547394 529.313354,490.333252 
	C533.402649,484.060455 537.589966,477.851685 541.698914,471.591583 
	C542.427002,470.482300 543.389404,469.307434 543.529663,468.081207 
	C543.761841,466.050690 544.101501,463.464630 543.089478,462.041962 
	C542.300720,460.933044 539.237366,460.467682 537.687073,461.051117 
	C532.269653,463.089844 527.052979,465.670593 521.792236,468.114929 
	C515.555786,471.012634 509.352753,473.982269 502.982086,476.993164 
	C499.528839,468.611267 501.289886,462.532867 506.305969,456.992981 
	C514.104980,448.379578 523.785522,443.378357 535.610168,441.446411 
z"/>
<path fill="#FFB83D" opacity="1.000000" stroke="none" 
	d="
M285.105286,296.041321 
	C284.875244,296.483765 284.687469,296.955078 284.408081,297.363800 
	C282.967804,299.470703 281.730316,303.126190 280.007660,303.375275 
	C273.974091,304.247711 269.622406,301.478088 268.064117,296.770233 
	C266.975891,293.482452 266.334259,290.046875 265.101868,285.109924 
	C263.753265,291.126465 262.706451,295.796509 261.507080,301.147247 
	C256.462463,300.335724 251.505066,299.538239 246.260452,298.694580 
	C245.645279,291.555206 245.054413,284.697937 244.463547,277.840668 
	C244.061340,277.806763 243.659119,277.772827 243.256912,277.738922 
	C242.510834,282.262482 241.937851,286.824890 240.936066,291.291107 
	C240.517532,293.157104 239.246872,296.246521 238.260544,296.287323 
	C235.935867,296.383484 232.891220,295.627472 231.335648,294.041382 
	C228.738892,291.393677 227.078476,287.827698 224.527512,283.880219 
	C223.822083,288.230225 223.235855,291.845123 222.572830,295.933624 
	C216.594574,293.573730 210.708908,291.405579 204.994659,288.853607 
	C203.949493,288.386810 203.078323,286.377563 203.027405,285.045898 
	C202.849808,280.400879 203.067337,275.740784 203.269653,270.325562 
	C203.560623,268.083099 203.716629,266.601471 203.872635,265.119843 
	C204.558365,261.712677 205.701920,258.321533 205.821609,254.894608 
	C205.997406,249.861618 208.548279,249.382645 212.592804,250.149719 
	C228.049408,253.081131 243.534134,255.864227 258.993561,258.781036 
	C267.440857,260.374847 275.858521,262.125732 284.478333,264.331665 
	C284.455933,266.611450 284.016968,268.372498 284.072083,270.117950 
	C284.344818,278.761353 284.748047,287.400604 285.105286,296.041321 
z"/>
<path fill="#5AC4B2" opacity="1.000000" stroke="none" 
	d="
M517.444214,204.251709 
	C534.915527,196.787781 552.386841,189.323853 570.203674,181.877121 
	C573.573669,199.733459 576.501526,217.589920 579.691223,235.399475 
	C580.480042,239.803986 580.303101,242.661896 574.893005,243.337570 
	C571.532043,243.757324 568.312317,245.306870 564.574402,246.493698 
	C562.856262,237.020981 561.252319,228.177887 559.648376,219.334793 
	C559.143372,219.351959 558.638428,219.369141 558.133423,219.386322 
	C558.133423,222.864258 558.124634,226.342209 558.136230,229.820099 
	C558.145691,232.649002 558.222839,235.478241 558.194763,238.306595 
	C558.109253,246.934433 555.033752,250.042175 546.454651,249.818619 
	C545.345825,249.789719 543.855835,248.588623 543.270325,247.528488 
	C542.013000,245.252136 541.230774,242.713348 540.254028,240.282013 
	C539.825623,240.301285 539.397278,240.320557 538.968933,240.339828 
	C538.876099,242.125061 538.797363,243.911163 538.687927,245.695374 
	C538.358276,251.069763 530.757629,256.156158 525.901123,254.003967 
	C524.919800,253.569046 524.299194,251.654434 524.058289,250.323212 
	C522.581482,242.161743 521.261780,233.971832 519.829834,224.955566 
	C518.994629,217.497055 518.219421,210.874390 517.444214,204.251709 
z"/>
<path fill="#FDB83B" opacity="1.000000" stroke="none" 
	d="
M205.116837,209.204407 
	C210.522964,209.559662 215.712952,210.150177 220.859299,211.003860 
	C230.273697,212.565491 239.693512,214.125015 249.053223,215.977661 
	C259.195923,217.985245 269.273865,220.320450 279.376862,222.527420 
	C281.332245,222.954575 283.272858,223.449158 285.623474,224.487274 
	C286.013306,231.100159 285.999969,237.138412 285.986633,243.176682 
	C285.805237,243.816467 285.698273,244.489471 285.430115,245.090546 
	C283.951996,248.403946 282.648560,254.355881 280.889954,254.497574 
	C275.858337,254.902985 270.586761,253.128021 265.540741,251.735062 
	C264.742310,251.514648 264.353119,248.848434 264.241730,247.279861 
	C263.883423,242.233307 263.743683,237.171219 263.519684,232.115128 
	C262.998718,232.052231 262.477753,231.989349 261.956787,231.926468 
	C261.350616,233.683990 260.591217,235.406876 260.183990,237.209351 
	C259.821198,238.815247 259.962402,240.528687 259.683807,242.160980 
	C258.265656,250.470551 256.580200,251.743439 248.425537,250.075974 
	C239.449203,248.240494 239.755081,249.975037 238.862946,240.139481 
	C238.533524,236.507645 237.882263,232.903732 237.327362,229.294815 
	C237.231903,228.673920 236.882919,228.091980 236.249649,226.453445 
	C235.420425,232.222214 234.720398,236.946747 234.070328,241.678116 
	C233.763596,243.910370 234.275803,246.513901 230.860718,246.923248 
	C227.399521,247.338120 224.356430,246.660095 222.931168,243.262650 
	C221.608261,240.109161 220.869461,236.710648 219.527451,232.276794 
	C218.363541,237.029190 217.478485,240.642975 216.503860,244.622528 
	C211.312057,244.065811 206.284256,243.526688 200.485123,242.904861 
	C201.989761,231.490921 203.435394,220.524612 205.116837,209.204407 
z"/>
<path fill="#FCB63B" opacity="1.000000" stroke="none" 
	d="
M334.105835,232.124054 
	C345.435822,233.558472 356.774597,234.927612 368.093323,236.446075 
	C378.922302,237.898819 389.721039,239.577988 400.552429,241.011124 
	C404.834747,241.577728 408.134949,243.288269 408.104187,247.954987 
	C408.037384,258.093201 407.567871,268.228729 407.099365,278.771545 
	C402.133820,278.739532 397.295013,278.541046 392.538300,277.809143 
	C384.647827,276.595032 380.557739,272.401215 378.979126,264.578278 
	C378.266022,261.044250 377.488831,257.523132 375.927124,254.068527 
	C375.927124,260.083282 375.927124,266.098053 375.927124,272.015808 
	C360.895111,274.046448 352.751373,267.862823 352.296661,251.933121 
	C351.780426,252.320755 351.264191,252.708389 350.747955,253.096039 
	C350.747955,256.526520 350.711731,259.957550 350.759857,263.387360 
	C350.795837,265.952850 349.588501,266.763977 347.071716,266.830566 
	C339.982483,267.018158 337.270599,265.011871 336.134644,258.090515 
	C335.623047,254.973221 335.320160,251.821671 334.878845,247.810944 
	C334.592010,241.998856 334.348907,237.061447 334.105835,232.124054 
z"/>
<path fill="#5AC5B2" opacity="1.000000" stroke="none" 
	d="
M416.110718,286.018219 
	C429.183716,283.193787 442.256714,280.369354 455.853760,277.431702 
	C456.224945,279.946533 456.672729,281.844849 456.760986,283.759705 
	C457.403015,297.690308 458.033234,311.622437 458.458099,325.560455 
	C458.494812,326.765411 457.265900,328.331390 456.187927,329.163727 
	C454.925720,330.138367 453.211884,330.573608 451.646301,331.101593 
	C445.748718,333.090485 443.844513,332.152313 442.014526,326.351746 
	C441.568115,324.936737 441.367706,323.446014 440.978394,322.010620 
	C440.609467,320.650238 440.141144,319.316803 439.715179,317.967285 
	C438.803711,322.598022 438.276489,327.077332 436.996307,331.330017 
	C435.354462,336.784119 430.097687,339.839996 424.518707,338.807343 
	C423.236267,338.569946 421.678223,337.155640 421.164368,335.905762 
	C419.213928,331.161774 417.639801,326.263062 415.777344,320.586304 
	C415.790039,308.506348 415.950378,297.262268 416.110718,286.018219 
z"/>
<path fill="#20201F" opacity="1.000000" stroke="none" 
	d="
M203.595673,264.842712 
	C203.716629,266.601471 203.560623,268.083099 203.276413,269.868042 
	C181.924820,262.804382 168.935913,247.610870 162.082047,226.710190 
	C159.239304,218.041336 157.215866,209.075607 153.941833,200.583374 
	C149.680283,189.529739 143.019897,186.016556 131.207901,187.642242 
	C124.128075,188.616653 117.126839,190.155258 110.051704,191.171844 
	C95.436485,193.271835 87.467880,186.465973 87.160576,171.669281 
	C87.012749,164.551102 87.707108,157.367264 86.974579,150.321869 
	C86.112183,142.027405 80.511620,138.128113 72.283340,139.497726 
	C66.734192,140.421387 61.371979,142.781845 55.818218,143.268845 
	C51.037952,143.688019 45.863796,143.109116 41.299175,141.628876 
	C35.293789,139.681473 32.150982,134.884521 32.665703,127.288506 
	C41.831150,137.096848 52.526936,135.729904 63.565636,133.139023 
	C67.416595,132.235153 71.483727,132.117188 75.465714,131.931656 
	C88.198235,131.338364 94.765305,137.536728 94.718658,150.316483 
	C94.696228,156.462311 93.702377,162.617020 93.865562,168.748611 
	C94.264130,183.724640 102.100533,189.135208 116.195084,184.240173 
	C124.013657,181.524796 131.909058,179.415863 140.084625,181.493195 
	C154.620483,185.186646 161.420105,195.941513 164.045959,209.746582 
	C166.797211,224.210983 171.257278,237.955109 182.103790,248.330719 
	C188.499588,254.448868 196.203247,259.199799 203.595673,264.842712 
z"/>
<path fill="#171717" opacity="1.000000" stroke="none" 
	d="
M575.987183,255.193954 
	C599.459961,241.328110 608.516357,219.524765 610.009705,193.520096 
	C610.541321,184.262131 612.161377,175.352798 618.908081,168.252182 
	C627.128479,159.600586 637.487732,159.019470 648.396606,160.272797 
	C652.018616,160.688950 655.678589,161.058746 659.315186,161.008820 
	C669.468872,160.869400 674.263672,155.727646 673.188538,145.509079 
	C672.445129,138.442703 670.763672,131.475525 669.513794,124.461815 
	C667.297058,112.023010 673.938782,103.589508 686.591003,103.083168 
	C692.739197,102.837128 698.905884,103.087112 705.063782,103.045525 
	C713.725098,102.987038 721.100952,100.445290 725.561279,92.303368 
	C725.897522,91.689598 726.683105,91.322052 728.068420,90.164276 
	C729.269348,94.935219 728.540161,98.708282 726.501465,102.018730 
	C721.642456,109.908844 712.336487,113.513969 703.132446,111.457268 
	C700.211426,110.804543 697.314880,109.993042 694.363586,109.534111 
	C683.858521,107.900536 676.963135,113.413834 677.080688,124.036781 
	C677.144226,129.776520 678.613647,135.498260 679.411682,141.233292 
	C679.823181,144.190689 680.411072,147.154190 680.471130,150.124008 
	C680.640625,158.502289 675.948181,164.618286 667.520996,165.773010 
	C660.480469,166.737701 653.266663,166.887436 646.144897,166.724884 
	C625.332947,166.249817 618.429993,171.809250 616.472534,192.569260 
	C615.183899,206.235825 613.876343,219.929138 606.654907,231.832886 
	C602.059448,239.407990 596.280212,246.488419 589.957214,252.696167 
	C586.872253,255.724915 581.330444,256.251160 576.514160,257.506287 
	C576.080811,256.466248 576.033997,255.830109 575.987183,255.193954 
z"/>
<path fill="#FB32A8" opacity="1.000000" stroke="none" 
	d="
M285.401855,296.218750 
	C284.748047,287.400604 284.344818,278.761353 284.072083,270.117950 
	C284.016968,268.372498 284.455933,266.611450 284.840454,264.495850 
	C300.896057,266.903442 316.778290,269.672791 332.810791,273.223846 
	C333.010651,281.352203 333.060242,288.698822 333.109863,296.045441 
	C332.708252,298.337708 332.504822,300.687744 331.856964,302.908173 
	C330.965393,305.963806 332.777130,310.443237 326.766632,310.780579 
	C317.224823,311.316193 313.657745,310.337341 312.089691,304.203857 
	C310.543091,298.154266 309.851044,291.886200 308.210602,285.732086 
	C307.346313,292.250366 306.482056,298.768646 305.629333,305.199646 
	C295.213593,309.088837 289.752563,306.638580 285.401855,296.218750 
z"/>
<path fill="#5CC3B0" opacity="1.000000" stroke="none" 
	d="
M414.999268,246.306061 
	C436.692902,237.620071 458.386536,228.934067 480.475006,220.629776 
	C481.204498,224.511490 481.539154,228.011475 481.873810,231.511475 
	C480.600159,231.897934 479.341461,232.345551 478.050598,232.661499 
	C463.903046,236.124466 459.085907,241.428238 456.890198,255.937576 
	C456.721100,257.054840 456.323273,258.137512 455.800537,260.107666 
	C454.248169,256.924774 453.061768,254.492325 451.214081,250.704010 
	C451.214081,255.914658 451.265778,259.740021 451.203308,263.563507 
	C451.074921,271.420990 450.436432,272.167786 442.691071,273.727448 
	C440.921387,274.083801 439.128571,274.325195 436.965820,274.682373 
	C435.340179,270.573242 433.726685,266.494812 432.389862,263.115723 
	C431.255005,267.012939 431.196198,272.295380 428.526550,275.013367 
	C425.614929,277.977722 420.283661,278.565399 415.541443,279.778351 
	C415.050262,268.347076 415.024750,257.326569 414.999268,246.306061 
z"/>
<path fill="#FFBA3E" opacity="1.000000" stroke="none" 
	d="
M284.112488,326.983795 
	C280.069763,335.113861 276.027039,343.243927 271.545624,352.256256 
	C266.590912,346.332123 262.282288,341.180511 257.561249,335.535767 
	C256.688965,337.559967 256.071777,338.992218 255.353394,340.659271 
	C251.059174,341.062744 246.619934,341.479828 242.923843,341.827087 
	C237.147934,328.641388 231.541672,315.843018 225.529358,302.117615 
	C232.085037,303.144318 237.869827,303.932709 243.608994,304.972992 
	C256.660706,307.338654 269.689972,309.828064 282.881866,313.034302 
	C283.394409,318.195496 283.753448,322.589661 284.112488,326.983795 
z"/>
<path fill="#5CC8B7" opacity="1.000000" stroke="none" 
	d="
M563.258667,351.192444 
	C568.991516,350.580505 574.284790,350.103760 579.555359,349.444641 
	C587.388123,348.465057 593.648071,352.584717 594.817871,359.629089 
	C596.096436,367.328522 592.136169,373.530792 584.193787,374.977875 
	C577.027710,376.283478 569.720703,376.928345 562.447327,377.504242 
	C553.175354,378.238434 543.864746,379.080811 534.591614,378.886475 
	C531.290588,378.817261 527.093140,376.634033 524.982666,374.047058 
	C520.664612,368.754150 522.417725,361.754028 529.123718,359.326508 
	C538.082092,356.083679 547.601685,354.379883 556.900696,352.098602 
	C558.824097,351.626709 560.837219,351.520721 563.258667,351.192444 
z"/>
<path fill="#FFBA3D" opacity="1.000000" stroke="none" 
	d="
M333.423035,296.266266 
	C333.060242,288.698822 333.010651,281.352203 333.006073,273.545288 
	C342.866730,274.498871 352.714722,275.721191 362.490326,277.372131 
	C376.690216,279.770264 390.837830,282.477722 405.420380,285.051880 
	C406.232697,289.729584 406.632355,294.408691 406.966980,299.524536 
	C405.862610,300.014465 404.694611,300.395050 403.812683,300.048187 
	C402.290070,299.449341 400.962494,298.368439 399.523102,297.542084 
	C383.869202,288.555023 374.407928,290.210785 362.889618,303.923248 
	C362.591064,304.278717 362.154327,304.518097 361.275146,305.211243 
	C360.021423,300.511414 358.855469,296.140564 357.689484,291.769684 
	C357.427826,291.766510 357.166138,291.763306 356.904480,291.760101 
	C356.603790,296.388947 356.247742,301.014984 356.016022,305.647278 
	C355.706085,311.842102 353.872803,315.106079 349.825623,314.811951 
	C340.409576,314.127563 336.202484,313.790619 335.265167,306.313171 
	C334.853088,303.025604 334.251678,299.761719 333.423035,296.266266 
z"/>
<path fill="#5CC8B7" opacity="1.000000" stroke="none" 
	d="
M342.832581,421.076294 
	C345.213013,414.643555 349.539215,411.763916 356.017700,410.842773 
	C369.333282,408.949402 382.600372,406.645203 395.812775,404.119659 
	C404.889709,402.384613 414.023193,408.270874 413.153473,417.151031 
	C412.530518,423.511292 409.496338,428.120361 402.986084,428.768921 
	C386.115051,430.449646 369.212433,431.909760 352.291016,432.943298 
	C344.911316,433.394073 341.297852,428.484985 342.832581,421.076294 
z"/>
<path fill="#60C6B5" opacity="1.000000" stroke="none" 
	d="
M415.849121,356.359497 
	C416.853760,350.634155 420.137177,346.663910 425.666565,345.142120 
	C436.191437,342.245392 446.819092,339.722107 458.300354,336.816986 
	C458.949280,348.641479 459.573761,360.020996 460.198242,371.400513 
	C459.701996,371.486115 459.205719,371.571716 458.709442,371.657318 
	C457.312775,367.133240 455.916138,362.609161 454.519501,358.085083 
	C452.332214,368.148407 452.994629,379.741821 437.642700,379.593872 
	C436.365784,374.101807 435.066650,368.514191 433.767517,362.926575 
	C432.223694,375.202881 431.676270,387.980042 413.924194,388.877716 
	C414.607666,384.771240 415.241608,380.962311 415.974609,376.281281 
	C415.998840,369.059296 415.923981,362.709381 415.849121,356.359497 
z"/>
<path fill="#5BC8B6" opacity="1.000000" stroke="none" 
	d="
M403.120270,347.154175 
	C393.654480,349.555664 384.542603,351.892212 375.359192,353.901581 
	C368.886841,355.317719 362.301636,356.209259 355.795288,357.480835 
	C348.281036,358.949371 342.781555,355.904053 341.175415,349.201935 
	C339.423340,341.890869 342.525360,336.178375 349.946838,334.387115 
	C358.646271,332.287415 367.476685,330.712860 376.278900,329.063171 
	C381.652222,328.056152 387.086304,327.377777 392.480591,326.476898 
	C398.865997,325.410522 403.045929,327.133514 405.611176,332.001343 
	C408.458771,337.404968 407.728851,342.438873 403.120270,347.154175 
z"/>
<path fill="#5CC8B7" opacity="1.000000" stroke="none" 
	d="
M585.048462,293.148926 
	C575.912231,295.543793 567.132507,297.952820 558.237549,299.809814 
	C551.095642,301.300812 543.816101,302.135559 536.593933,303.237488 
	C531.302063,304.044800 524.472107,300.333282 523.214294,296.001923 
	C521.638000,290.573914 525.106079,283.369293 530.905640,281.778473 
	C543.520996,278.318298 556.237610,275.189240 569.005310,272.338806 
	C575.796814,270.822632 581.444885,273.863068 585.861694,278.871094 
	C590.248596,283.845245 589.945007,287.848541 585.048462,293.148926 
z"/>
<path fill="#F930A6" opacity="1.000000" stroke="none" 
	d="
M333.722046,231.974777 
	C334.348907,237.061447 334.592010,241.998856 334.826263,247.369232 
	C333.807343,252.623871 332.797272,257.445496 331.799652,262.207611 
	C315.983398,264.926239 310.927612,261.180756 308.501282,243.738937 
	C307.758179,247.328522 307.496643,249.593704 306.796356,251.713989 
	C305.971252,254.212067 307.126129,257.742981 302.425385,258.218140 
	C295.113403,258.957275 291.317749,258.261078 289.415558,253.897171 
	C288.041321,250.744614 287.438629,247.255768 286.239258,243.546783 
	C285.999969,237.138412 286.013306,231.100159 286.031189,224.603073 
	C292.310181,225.027451 298.596985,225.831772 304.856049,226.812927 
	C313.569153,228.178711 322.262848,229.668915 330.960510,231.131775 
	C331.769104,231.267792 332.546448,231.589828 333.722046,231.974777 
z"/>
<path fill="#F930A6" opacity="1.000000" stroke="none" 
	d="
M482.165466,231.774017 
	C481.539154,228.011475 481.204498,224.511490 480.829224,220.583984 
	C492.828735,214.953888 504.868927,209.751297 517.176636,204.400208 
	C518.219421,210.874390 518.994629,217.497055 519.779907,224.536133 
	C519.140442,232.874680 518.420227,240.791824 517.861206,248.720337 
	C517.278931,256.978790 516.753113,257.524139 507.522156,257.743134 
	C505.720825,242.944321 495.104767,236.483154 482.165466,231.774017 
z"/>
<path fill="#5CC8B7" opacity="1.000000" stroke="none" 
	d="
M525.379761,326.655579 
	C528.363708,324.916840 530.973145,322.839722 533.901794,322.180328 
	C543.767761,319.958923 553.743347,318.221222 563.684570,316.338562 
	C570.632263,315.022797 576.092163,317.576294 580.227844,323.081726 
	C583.638977,327.622589 582.593384,332.976837 577.782776,335.943817 
	C576.388489,336.803741 574.819824,337.717224 573.248657,337.900726 
	C560.727234,339.363068 548.212341,341.111084 535.641418,341.839294 
	C527.345215,342.319824 522.272400,334.423370 525.379761,326.655579 
z"/>
<path fill="#5CC8B7" opacity="1.000000" stroke="none" 
	d="
M395.520691,373.381134 
	C397.204681,375.464722 398.933350,377.129364 399.981415,379.147430 
	C402.545837,384.085266 400.257507,389.508484 394.650665,390.849304 
	C389.851990,391.996887 384.826904,392.358704 379.876831,392.677673 
	C370.263916,393.297150 360.608795,393.363068 351.019226,394.205536 
	C345.184387,394.718109 344.024261,390.936493 342.899139,386.893524 
	C341.667389,382.467529 343.613861,379.117645 347.758392,377.869019 
	C355.204803,375.625519 362.788849,373.788818 370.391937,372.133759 
	C375.079620,371.113281 379.911224,370.759033 384.674164,370.077484 
	C388.666412,369.506226 392.276123,370.204803 395.520691,373.381134 
z"/>
<path fill="#61C7B5" opacity="1.000000" stroke="none" 
	d="
M429.933655,425.619751 
	C428.751251,426.769348 427.786865,427.617279 425.872498,429.300507 
	C428.971497,415.910583 427.313965,404.598877 416.576019,394.273956 
	C431.210022,389.297272 444.579102,384.750732 458.287384,380.088867 
	C460.636505,385.572845 461.985260,391.015472 459.793213,396.465973 
	C458.846954,398.818848 456.548553,401.730804 454.363739,402.239807 
	C450.501923,403.139496 449.979858,405.431732 450.155304,408.276459 
	C450.692932,416.995850 446.912231,422.212555 437.510254,423.745819 
	C436.040863,420.289948 434.423920,416.487091 432.719788,412.479187 
	C431.793976,417.107758 430.972809,421.212921 429.933655,425.619751 
z"/>
<path fill="#242424" opacity="1.000000" stroke="none" 
	d="
M658.516479,387.919250 
	C656.655518,388.341553 654.812866,388.469208 653.814575,389.453369 
	C650.990234,392.237488 648.557373,395.413940 645.881958,398.355499 
	C643.895813,400.539154 641.715149,401.009644 639.483643,398.605530 
	C639.373169,398.486481 639.213867,398.413971 639.082581,398.312927 
	C631.385986,392.386108 631.299683,394.660980 636.398315,385.776459 
	C637.548523,383.772247 638.808655,381.831146 639.983826,379.916840 
	C635.243530,374.443085 629.370667,373.178345 623.645874,376.996674 
	C619.958374,379.456116 616.812988,382.757874 613.546509,385.812439 
	C607.087402,391.852356 603.540344,391.759338 597.247314,385.203918 
	C609.585144,372.062378 635.151672,368.191193 650.712036,377.240326 
	C656.304810,380.492859 661.845703,383.874420 667.158752,387.559723 
	C677.614929,394.812531 682.077637,404.963013 679.732971,418.148102 
	C678.525330,415.198822 676.807007,412.350006 676.203430,409.281952 
	C674.188110,399.036682 668.952271,391.636200 658.516479,387.919250 
z"/>
<path fill="#FB46B2" opacity="1.000000" stroke="none" 
	d="
M635.916870,280.339111 
	C646.167664,281.353271 654.132324,285.197968 658.700684,294.586304 
	C662.106323,301.585114 661.548340,308.275970 657.409607,314.888214 
	C657.522400,313.744965 657.663269,312.603668 657.743591,311.458130 
	C658.385376,302.301575 655.545288,294.851746 647.450562,289.779816 
	C639.268494,284.653168 631.155640,285.117401 622.938293,289.578918 
	C620.633118,290.830475 619.163940,292.329315 620.711426,295.096558 
	C620.790771,295.238312 620.817505,295.411102 620.859619,295.571838 
	C624.244019,308.483459 621.590881,312.738007 608.253296,315.789978 
	C601.940002,307.907776 603.058899,300.252838 609.703003,292.577026 
	C606.565186,290.782593 603.907776,289.262909 601.250366,287.743225 
	C601.217957,287.295685 601.185486,286.848145 601.153015,286.400604 
	C603.338501,286.077759 605.515015,285.661743 607.711304,285.451874 
	C612.038879,285.038361 616.446472,285.103516 620.693420,284.298035 
	C625.700073,283.348419 630.571472,281.685944 635.916870,280.339111 
M608.941772,301.537537 
	C608.299744,304.715576 605.822693,308.457855 610.449463,310.347717 
	C611.716003,310.865051 615.148193,309.399384 615.467407,308.253357 
	C616.225037,305.533508 615.713745,302.460175 615.715271,299.529694 
	C613.560669,299.939392 611.406067,300.349091 608.941772,301.537537 
z"/>
<path fill="#FA40A9" opacity="1.000000" stroke="none" 
	d="
M284.464722,326.971436 
	C283.753448,322.589661 283.394409,318.195496 283.098846,313.346375 
	C287.751129,313.000549 292.366852,312.834503 296.922852,313.279419 
	C305.019257,314.070007 313.118500,314.998718 321.136719,316.344910 
	C324.612701,316.928558 327.854462,318.806854 331.270782,319.880035 
	C333.726196,320.651398 336.294556,321.063141 339.318787,321.750305 
	C335.807617,325.701111 332.180725,329.782135 328.460327,333.968353 
	C324.769531,330.845398 321.525940,327.753723 317.938263,325.133087 
	C308.736511,318.411499 299.185120,318.535492 289.521820,324.239929 
	C287.962036,325.160706 286.385651,326.053406 284.464722,326.971436 
z"/>
<path fill="#FB4AB3" opacity="1.000000" stroke="none" 
	d="
M198.043365,151.395630 
	C196.851791,161.177765 194.217667,170.676926 197.689819,180.687134 
	C190.421570,173.118958 183.020035,165.293945 175.972092,157.162460 
	C170.814865,151.212357 167.679260,144.081924 168.195221,136.145615 
	C168.561279,130.515305 170.333908,124.976425 171.478683,119.396736 
	C172.302673,119.498222 173.126648,119.599701 173.950638,119.701187 
	C173.774872,122.785339 173.909744,125.925522 173.365494,128.943222 
	C171.686768,138.251541 172.715607,146.780716 179.267563,154.163971 
	C181.549561,156.735519 183.565445,157.695480 186.931747,155.751678 
	C190.315811,153.797623 194.161011,152.642197 198.043365,151.395630 
z"/>
<path fill="#FB4AB3" opacity="1.000000" stroke="none" 
	d="
M576.676514,170.918152 
	C576.414795,161.665543 576.166992,152.378448 575.968628,142.640381 
	C577.978455,143.026840 579.938843,143.864273 582.180359,144.821823 
	C590.307251,136.553253 592.794373,127.055244 588.795776,115.858208 
	C587.712219,112.823929 587.452576,109.495422 587.737915,106.084686 
	C593.878418,111.704529 596.178467,118.804962 595.282288,126.508759 
	C594.683289,131.658905 593.000488,136.866135 590.846191,141.613831 
	C586.470398,151.257477 581.446350,160.607025 576.677734,170.445587 
	C576.666016,170.813416 576.690430,170.883667 576.676514,170.918152 
z"/>
<path fill="#66C8B8" opacity="1.000000" stroke="none" 
	d="
M575.643982,255.064590 
	C576.033997,255.830109 576.080811,256.466248 576.116089,257.421570 
	C558.402344,261.140198 540.700134,264.539673 522.523865,267.517151 
	C521.701538,265.885223 521.353271,264.675232 521.005066,263.465240 
	C536.039001,259.676117 551.020508,255.648422 566.155334,252.317825 
	C568.879883,251.718262 572.236206,253.989441 575.643982,255.064590 
z"/>
<path fill="#FB52B8" opacity="1.000000" stroke="none" 
	d="
M114.801788,237.719757 
	C119.415100,235.472443 122.030869,236.710190 122.710213,241.351532 
	C123.113388,244.106064 123.021477,246.933060 123.175339,250.222916 
	C126.152412,249.324173 128.747757,248.540665 131.343109,247.757156 
	C131.668335,248.240143 131.993561,248.723129 132.318802,249.206131 
	C129.923721,251.003311 127.782379,253.544205 125.087807,254.463440 
	C115.586609,257.704651 99.587502,246.693176 98.106773,235.188217 
	C100.868622,237.687851 102.924606,239.672836 105.111168,241.501709 
	C109.617531,245.270859 109.951370,245.171585 113.080734,239.993027 
	C113.506508,239.288422 114.061142,238.661713 114.801788,237.719757 
z"/>
<path fill="#FB52B8" opacity="1.000000" stroke="none" 
	d="
M646.548889,227.951294 
	C647.802612,227.160172 649.023193,226.393967 650.235779,226.406586 
	C651.984985,226.424759 653.728271,227.008240 656.007812,227.455139 
	C656.007812,222.802277 656.007812,218.695190 656.007812,213.538040 
	C661.262634,215.441422 665.812988,217.089661 670.650879,218.842010 
	C673.432678,215.348373 676.277527,211.775543 679.888245,207.240860 
	C680.022949,212.343689 679.464233,215.718475 676.105347,218.354782 
	C671.798889,221.734772 667.846558,225.580399 663.440735,228.815536 
	C658.564148,232.396347 651.928345,231.984100 646.548889,227.951294 
z"/>
<path fill="#5CC8B7" opacity="1.000000" stroke="none" 
	d="
M510.207581,554.079590 
	C515.013794,554.230164 518.496399,556.360962 519.748596,560.413269 
	C521.104919,564.802551 518.626892,568.448792 515.305359,571.247314 
	C511.988129,574.042114 507.034790,573.621277 504.629669,570.571533 
	C501.342041,566.402771 502.358856,558.400818 506.641144,555.413757 
	C507.559723,554.773071 508.748657,554.519958 510.207581,554.079590 
z"/>
<path fill="#5CC8B7" opacity="1.000000" stroke="none" 
	d="
M377.438354,308.257446 
	C379.914612,307.654053 383.464600,306.300293 384.055878,307.109192 
	C385.959930,309.714081 387.221252,313.032166 383.189850,315.625031 
	C381.121674,316.955261 379.715820,319.355835 377.606415,320.570984 
	C375.027893,322.056305 372.025421,322.805695 368.598785,324.103394 
	C367.468445,315.396942 373.456024,312.637390 377.438354,308.257446 
z"/>
<path fill="#242424" opacity="1.000000" stroke="none" 
	d="
M416.028534,285.639313 
	C415.950378,297.262268 415.790039,308.506348 415.745667,320.180878 
	C412.088165,318.401215 408.314697,316.191040 402.970215,313.060730 
	C406.424286,310.248474 409.155426,308.024780 411.919708,305.462952 
	C412.383331,298.897400 412.783508,292.667603 413.265045,286.444122 
	C413.390503,284.822662 413.769592,283.220825 414.291748,281.245239 
	C414.551270,280.880554 414.984985,280.799286 414.984985,280.799286 
	C415.305450,282.286316 415.625916,283.773376 416.028534,285.639313 
z"/>
<path fill="#FDD5EC" opacity="1.000000" stroke="none" 
	d="
M161.653534,310.044006 
	C162.542465,311.212952 163.857178,312.725067 163.518768,313.591644 
	C160.049789,322.474609 156.312668,331.252838 152.650360,340.060303 
	C152.219940,339.995697 151.789520,339.931061 151.359100,339.866455 
	C151.132584,336.549805 150.906067,333.233154 150.408081,329.664154 
	C153.861725,322.970398 157.586868,316.528992 161.653534,310.044006 
z"/>
<path fill="#FB4AB3" opacity="1.000000" stroke="none" 
	d="
M520.609009,263.366791 
	C521.353271,264.675232 521.701538,265.885223 522.109680,267.401672 
	C517.892517,271.543823 513.615356,275.379486 508.453979,280.008118 
	C507.587280,275.217285 506.744476,271.616699 506.419800,267.969971 
	C506.344910,267.128998 507.906158,265.563416 508.953888,265.306030 
	C512.650757,264.397980 516.451538,263.913483 520.609009,263.366791 
z"/>
<path fill="#100E0C" opacity="1.000000" stroke="none" 
	d="
M415.527893,356.181061 
	C415.923981,362.709381 415.998840,369.059296 416.033936,375.902771 
	C412.712921,371.709412 409.431671,367.022430 405.723907,361.726257 
	C409.218201,359.617157 412.212433,357.809875 415.527893,356.181061 
z"/>
<path fill="#66C8B8" opacity="1.000000" stroke="none" 
	d="
M415.105408,280.721100 
	C414.984985,280.799286 414.551270,280.880554 414.335449,280.834473 
	C414.182159,269.438110 414.244690,258.087769 414.653259,246.521759 
	C415.024750,257.326569 415.050262,268.347076 415.140961,279.862000 
	C415.206177,280.356445 415.225800,280.642914 415.105408,280.721100 
z"/>
<path fill="#FBB436" opacity="1.000000" stroke="none" 
	d="
M337.298004,167.594849 
	C345.187897,168.676071 353.074707,169.780380 360.968292,170.833847 
	C379.376434,173.290604 397.787781,175.722931 416.994537,178.270828 
	C418.016541,197.315170 419.044525,216.471863 420.111694,236.358002 
	C411.289276,235.086700 402.996613,233.979980 394.733856,232.682968 
	C376.613861,229.838684 358.505371,226.919952 340.404205,223.958160 
	C338.833740,223.701172 337.352203,222.900467 335.406494,221.773331 
	C335.755066,203.327850 336.526520,185.461349 337.298004,167.594849 
z"/>
<path fill="#57C1AF" opacity="1.000000" stroke="none" 
	d="
M480.438812,210.940231 
	C462.433319,218.735306 444.427856,226.530396 425.760986,234.611801 
	C425.184845,229.124512 424.558716,224.253723 424.183807,219.363647 
	C423.396393,209.093994 422.978302,198.790207 421.942169,188.547623 
	C421.322113,182.418091 424.089447,178.544830 429.047272,176.132294 
	C440.784149,170.421005 452.682617,165.042175 464.506622,159.509399 
	C467.788086,157.973907 471.037659,156.370132 474.653198,155.357971 
	C476.815979,174.258896 478.627411,192.599564 480.438812,210.940231 
z"/>
<path fill="#F92AA6" opacity="1.000000" stroke="none" 
	d="
M336.970276,167.368881 
	C336.526520,185.461349 335.755066,203.327850 335.048157,221.666992 
	C322.706451,220.284393 310.299042,218.436783 297.894623,216.569229 
	C294.155243,216.006256 290.424194,215.387894 286.362457,214.619797 
	C286.035583,214.444702 286.029205,214.183197 286.357361,213.780334 
	C286.771362,196.632416 286.857208,179.887344 286.943024,163.142273 
	C287.208618,162.321716 287.474213,161.501175 287.859802,160.369751 
	C294.887512,161.031937 301.799316,161.976944 308.701965,162.984955 
	C318.019165,164.345566 327.329346,165.754639 336.970276,167.368881 
z"/>
<path fill="#F72DA7" opacity="1.000000" stroke="none" 
	d="
M480.753967,210.858963 
	C478.627411,192.599564 476.815979,174.258896 475.017853,155.481995 
	C487.645569,149.357986 500.260010,143.670212 513.212646,137.944397 
	C515.038452,155.539154 516.521362,173.172363 518.029236,190.803421 
	C518.097229,191.597778 518.391235,192.372818 518.741821,193.536682 
	C506.292145,199.536911 493.680634,205.157303 480.753967,210.858963 
z"/>
<path fill="#F12DA1" opacity="1.000000" stroke="none" 
	d="
M345.109955,162.527954 
	C328.708832,160.705872 312.813751,158.437653 295.756470,153.432739 
	C307.716278,146.535065 318.266937,140.023468 329.227051,134.295441 
	C335.407684,131.065308 342.028381,133.192459 347.860870,136.075592 
	C355.690460,139.945938 363.178894,144.506424 372.019897,149.444260 
	C362.434540,154.101044 355.450653,161.130325 345.109955,162.527954 
z"/>
<path fill="#F12DA1" opacity="1.000000" stroke="none" 
	d="
M363.289612,94.987000 
	C363.794800,93.921753 364.613525,92.978897 365.772156,91.995178 
	C371.094391,90.965683 376.076752,89.977058 382.028717,88.796043 
	C378.660461,104.835846 379.838196,119.559280 390.591858,132.466766 
	C379.849976,137.270096 369.452179,137.143936 359.090332,133.776184 
	C354.512390,132.288284 354.432648,127.584312 354.165405,123.717079 
	C353.598328,115.509758 356.474457,108.130211 360.494171,101.123940 
	C361.616180,99.168259 362.571411,97.116875 363.289612,94.987000 
z"/>
<path fill="#FFF9FC" opacity="1.000000" stroke="none" 
	d="
M201.295074,361.217163 
	C198.223740,376.158569 189.205887,386.840790 177.910263,397.989441 
	C175.138351,385.858063 171.826782,374.808929 170.253662,363.517578 
	C168.660263,352.080750 170.328491,340.601562 174.933411,329.819763 
	C176.149063,326.973511 177.662079,324.057343 179.733780,321.815796 
	C183.676575,317.549744 189.160217,317.741241 193.439468,321.771881 
	C198.841965,326.860474 200.881653,333.711243 201.691757,340.571930 
	C202.476730,347.219727 201.596954,354.064056 201.295074,361.217163 
z"/>
<path fill="#FDD5EC" opacity="1.000000" stroke="none" 
	d="
M119.994202,404.010498 
	C127.264214,410.001831 134.225952,415.817474 141.591446,421.970398 
	C131.592239,422.743591 114.461067,408.004028 113.330788,398.022034 
	C115.582504,400.081573 117.634224,401.958191 119.994202,404.010498 
z"/>
<path fill="#FFFFFF" opacity="1.000000" stroke="none" 
	d="
M148.141617,391.864319 
	C148.383240,391.977905 148.528427,392.187195 148.673630,392.396515 
	C148.455063,392.441376 148.236481,392.486267 147.936493,392.342712 
	C147.855087,392.154266 148.045181,391.960052 148.141617,391.864319 
z"/>
<path fill="#FFFFFF" opacity="1.000000" stroke="none" 
	d="
M462.002502,529.000244 
	C462.125488,528.719421 462.283539,528.475342 462.441589,528.231262 
	C462.480560,528.495361 462.519562,528.759460 462.333740,529.066284 
	C462.108948,529.109009 462.037567,529.036865 462.002502,529.000244 
z"/>
<path fill="#FCFEFE" opacity="1.000000" stroke="none" 
	d="
M303.030212,487.070953 
	C312.158203,502.789703 304.422485,520.415100 291.591797,525.737061 
	C290.089996,509.877472 288.605560,494.201385 287.096375,478.263733 
	C294.300262,478.277252 299.975220,479.957458 303.030212,487.070953 
z"/>
<path fill="#F5F0F6" opacity="1.000000" stroke="none" 
	d="
M311.272949,504.527069 
	C310.575104,499.019562 309.825500,493.950806 309.402313,488.854919 
	C309.303864,487.669434 310.316132,486.391663 310.817352,485.156372 
	C311.655334,485.970062 312.836914,486.631134 313.276855,487.621643 
	C316.780518,495.509918 317.403778,503.413635 312.658783,512.421936 
	C312.090851,509.206238 311.715485,507.081085 311.272949,504.527069 
z"/>
<path fill="#FDAAB3" opacity="1.000000" stroke="none" 
	d="
M286.702515,163.454102 
	C286.857208,179.887344 286.771362,196.632416 286.378326,213.651230 
	C286.201416,197.205292 286.331726,180.485611 286.702515,163.454102 
z"/>
<path fill="#FEEDF7" opacity="1.000000" stroke="none" 
	d="
M367.766418,517.853394 
	C368.458618,509.322266 369.247101,501.175537 370.158508,493.042603 
	C370.355682,491.283264 370.995270,489.573517 371.426849,487.857727 
	C381.499603,495.633606 382.097992,514.243042 371.869690,524.751038 
	C370.471893,522.455505 369.189331,520.349121 367.766418,517.853394 
z"/>
<path fill="#FDD5EC" opacity="1.000000" stroke="none" 
	d="
M354.313019,524.726196 
	C360.391998,530.083984 366.210724,535.208374 372.217010,540.498047 
	C363.790649,543.983948 351.497009,533.098389 351.230865,522.299622 
	C352.282257,523.116760 353.167511,523.804810 354.313019,524.726196 
z"/>
<path fill="#FEEDF7" opacity="1.000000" stroke="none" 
	d="
M609.096619,301.148163 
	C611.406067,300.349091 613.560669,299.939392 615.715271,299.529694 
	C615.713745,302.460175 616.225037,305.533508 615.467407,308.253357 
	C615.148193,309.399384 611.716003,310.865051 610.449463,310.347717 
	C605.822693,308.457855 608.299744,304.715576 609.096619,301.148163 
z"/>
</svg>